<svg width="512" height="512" viewBox="0 0 512 512" fill="none" xmlns="http://www.w3.org/2000/svg">
<g clip-path="url(#clip0_1257_589)">
<rect width="512" height="512" rx="102.4" fill="#202124"/>
<path d="M262.07 478.584C276.063 460.24 277.079 442.776 265.841 413.819C261.627 402.96 257.625 394.061 256.948 394.041C256.27 394.022 251.889 402.698 247.212 413.321C237.778 434.747 235.202 448.698 238.714 459.34C241.636 468.194 252.357 485.286 254.989 485.286C256.072 485.286 259.259 482.27 262.07 478.584ZM445.81 424.164C467.689 418.657 491.019 406.738 509.944 391.398C528.248 376.562 531.254 372.254 524.341 370.77C519.943 369.825 479.067 364.986 454.938 362.553C448.245 361.878 433.829 359.881 422.904 358.114L403.039 354.903L394.391 361.113C375.586 374.618 356.066 383.216 338.218 385.855C320.859 388.422 287.52 387.934 280.999 385.018C273.938 381.859 277.742 387.078 288.13 394.8C309.71 410.842 348.049 424.853 379.911 428.342C400.808 430.631 426.619 428.994 445.81 424.164ZM163.857 422.559C182.984 417.061 221.421 398.371 230.795 390.01C237.212 384.287 237.407 383.819 232.824 385.143C223.622 387.802 199.607 388.958 183.932 387.497C164.528 385.687 150.888 380.598 127.26 366.354C110.861 356.468 107.568 355.207 100.217 356.002C62.4234 360.087 -13.9519 370.411 -15.2506 371.61C-17.3702 373.567 5.59412 394.759 19.4162 403.601C34.0631 412.971 54.4486 421.426 71.5803 425.238C92.6375 429.923 143.361 428.45 163.857 422.559ZM312.947 358.912C320.509 354.997 331.517 346.209 342.014 335.706C352.831 324.883 358.392 320.471 357.471 323.442C353.921 334.901 346.004 347.183 336.344 356.218C330.582 361.609 326.228 366.38 326.669 366.821C328.433 368.585 350.386 360.676 365.687 352.764C395.536 337.329 427.697 300.13 443.853 262.351C453.969 238.698 455.069 233.759 450.224 233.759C439.285 233.759 401.851 251.005 381.915 265.229C368.365 274.896 336.266 306.833 319.762 327.067C313.847 334.319 303.733 346.089 297.286 353.223C290.838 360.358 285.563 366.902 285.563 367.766C285.563 370.315 299.84 365.699 312.947 358.912ZM176.961 359.232C169.662 352.504 155.743 329.7 155.743 324.471C155.743 323.92 162.361 330.054 170.449 338.103C186.956 354.53 209.975 367.636 222.32 367.636H229.526L217.096 354.959C210.259 347.986 198.493 334.522 190.95 325.039C155.132 280.01 110.401 246.477 70.8017 234.967L59.8985 231.798L61.2111 240.007C62.9213 250.702 77.8631 282.557 88.5533 298.3C99.4588 314.359 121.574 336.712 136.096 346.354C146.922 353.542 178.183 367.528 183.589 367.602C184.958 367.621 181.976 363.854 176.961 359.232ZM233.809 335.994C221.044 310.622 217.632 293.777 217.621 256.072C217.611 227.316 218.256 220.375 222.196 206.782C227.761 187.582 236.581 169.509 247.546 154.843L255.743 143.879L261.516 150.786C264.692 154.584 272.26 167.733 278.335 180.005C293.324 210.283 296.479 225.719 295.271 262.87C294.411 289.328 293.75 293.313 286.801 313.883C282.656 326.155 277.87 338.328 276.166 340.935C269.74 350.769 275.172 346.907 284.541 334.982C289.905 328.154 306.351 308.588 321.088 291.501L347.883 260.434L351.492 241.852C360.059 197.745 348.624 148.1 319.652 103.619C305.631 82.0931 262.091 37 255.327 37C248.966 37 206.816 80.0645 193.738 99.925C161.6 148.731 150.39 206.889 163.927 254.588C165.351 259.603 174.614 272.16 190.863 291.1C204.485 306.977 220.907 326.586 227.356 334.674C233.805 342.763 239.411 349.38 239.813 349.38C240.215 349.38 237.514 343.356 233.809 335.994ZM67.4123 338.874C79.7357 337.558 90.1196 336.268 90.4876 336.007C90.8555 335.747 85.5213 328.837 78.6337 320.651C71.7461 312.466 63.9646 302.118 61.3416 297.655C52.9056 283.303 40.1541 248.846 36.4507 230.395L32.8509 212.46L20.2025 211.855C1.56958 210.963 -51.1612 221.052 -51.1572 225.509C-51.1542 228.508 -41.9761 250.352 -35.7578 262.157C-22.3281 287.654 5.94191 320.334 26.6063 334.25C38.4326 342.215 37.3145 342.088 67.4123 338.874ZM478.873 337.928C496.063 329.09 515.785 310.723 533.011 287.513C542.772 274.36 565.489 231.704 565.489 226.527C565.489 221.989 529.772 214.079 500.667 212.171L480.715 210.864L478.207 222.819C469.176 265.858 452.495 300.961 428.921 326.537C424.231 331.624 422.102 335.244 423.746 335.334C425.283 335.417 433.843 336.677 442.768 338.134C465.287 341.808 471.397 341.773 478.873 337.928ZM409.571 223.793C427.841 215.293 450.628 208.377 467.466 206.222L477.965 204.878L479.407 189.491C481.405 168.17 479.095 128.429 474.729 109.01L471.08 92.7822L461.995 93.4828C440.779 95.1188 400.166 111.8 378.587 127.741C361.463 140.392 361.423 140.48 366.211 155.189C375.112 182.537 377.591 206.791 374.199 233.327L372.568 246.08L382.585 238.884C388.094 234.926 400.237 228.135 409.571 223.793ZM138.432 231.223C135.189 203.493 137.249 182.711 146.093 153.912L150.368 139.99L145.449 136.08C116.601 113.152 88.8959 100.74 48.7528 92.7587C40.449 91.1079 39.7995 92.6478 35.0528 125.237C31.0738 152.557 32.0072 198.29 36.6304 202.538C37.9928 203.789 47.3227 206.391 57.3635 208.318C81.4293 212.938 102.595 221.302 121.259 233.567C129.627 239.066 137.247 243.64 138.193 243.733C139.14 243.825 139.247 238.196 138.432 231.223Z" fill="white"/>
</g>
<defs>
<clipPath id="clip0_1257_589">
<rect width="512" height="512" rx="102.4" fill="white"/>
</clipPath>
</defs>
</svg>
