<svg width="64" height="64" viewBox="0 0 64 64" fill="none" xmlns="http://www.w3.org/2000/svg">
<rect width="64" height="64" rx="32" fill="#F6F8EC"/>
<path d="M37.2473 43.5962C38.4215 43.1237 40.1283 41.8029 41.1632 40.5658C41.8795 39.7095 42.064 39.2577 41.8203 38.9567C41.6331 38.7256 41.4549 38.8351 40.6856 39.6541C38.7807 41.682 37.3261 42.5865 35.2249 43.0499C34.5591 43.1968 34.5221 43.1335 34.9847 42.6387C35.1895 42.4197 35.6065 41.9426 35.9115 41.5786C37.2143 40.0235 37.6446 39.5502 38.8194 38.3802C39.5016 37.7008 40.0598 37.1221 40.0598 37.0942C40.0598 37.0185 40.3181 36.8053 40.507 36.7252C40.5982 36.6865 40.992 36.4182 41.382 36.129C42.908 34.9972 44.9058 33.9437 46.4482 33.4572L46.8678 33.3248L46.9415 32.9504C47.0525 32.3863 47.0627 32.3802 48.3953 32.0872C49.3644 31.8741 51.5352 31.5144 51.7785 31.5265C52.0208 31.5386 51.3568 31.6814 50.466 31.8087C49.3726 31.965 47.2738 32.4078 47.1795 32.502C47.1503 32.5312 47.0845 32.7374 47.0332 32.9603C46.601 34.8369 46.3651 35.6209 45.9705 36.4905C45.0903 38.4307 44.1739 39.8252 42.9365 41.1075C42.3759 41.6885 41.4994 42.4592 41.3993 42.4592C41.3744 42.4592 41.197 42.5634 41.0052 42.6907C40.4851 43.0359 39.5822 43.3156 38.4143 43.4933C36.8077 43.7377 36.92 43.7278 37.2473 43.5962ZM25.7785 43.4928C24.6447 43.3226 23.8366 43.1324 23.4848 42.9529C20.8659 41.6168 18.3138 38.0586 17.3704 34.428C17.2632 34.0155 17.1378 33.5655 17.0918 33.428C17.0458 33.2905 16.972 33.0291 16.9277 32.8471C16.8835 32.6651 16.8177 32.4918 16.7816 32.4618C16.592 32.3044 13.5776 31.7606 12.8256 31.748C12.5766 31.7439 12.3726 31.7185 12.3725 31.6916C12.3724 31.6647 12.309 31.6173 12.2316 31.5862C12.1415 31.5499 12.1265 31.5282 12.19 31.5257C12.2444 31.5235 12.3083 31.541 12.3319 31.5647C12.3555 31.5883 12.5781 31.6154 12.8267 31.625C13.3733 31.646 14.8196 31.8865 15.9495 32.1443C16.8775 32.356 16.9641 32.4141 17.0325 32.8704C17.0887 33.2448 17.2087 33.3665 17.6419 33.4881C18.8416 33.8248 21.1154 35.0011 22.341 35.919C24.2745 37.3671 25.7736 38.8343 28.1293 41.5842C28.5269 42.0483 28.9838 42.5666 29.1447 42.7361C29.519 43.1303 29.4619 43.1931 28.8524 43.0575C26.6785 42.5739 25.224 41.6723 23.3752 39.6624C22.5789 38.7968 22.4407 38.7109 22.2257 38.9485C21.6295 39.6073 24.1698 42.3192 26.4002 43.4049C26.6734 43.5379 26.8562 43.6438 26.8065 43.6402C26.7567 43.6366 26.2941 43.5703 25.7785 43.4928ZM31.051 43.2687C30.7361 42.999 30.0276 42.2034 28.9666 40.928C27.7481 39.4633 26.3326 37.9666 25.2319 36.9792C24.3014 36.1444 24.3606 36.2347 24.1259 35.2913C23.481 32.6994 23.4038 30.5127 23.845 27.3342C24.0716 25.7016 24.1766 24.5617 24.2221 23.2405C24.2591 22.1654 24.2746 22.0842 24.4424 22.0842C24.5996 22.0842 26.832 24.2711 27.4217 25.0027C29.238 27.2563 30.371 29.2072 31.2382 31.5744L31.4979 32.2833L31.482 37.8817C31.4715 41.5461 31.4444 43.4865 31.4035 43.4986C31.3691 43.5087 31.2105 43.4053 31.051 43.2687ZM31.4348 37.8957V32.3947L31.157 31.6301C30.2618 29.166 29.2436 27.406 27.3588 25.0652C26.9396 24.5446 24.5502 22.1467 24.4507 22.1467C24.4177 22.1467 24.3728 22.5568 24.3498 23.0686C24.2814 24.5878 24.2064 25.3869 23.9671 27.1467C23.5368 30.3096 23.5935 32.6456 24.1581 35.0217C24.4419 36.2165 24.4057 36.153 25.193 36.8342C25.945 37.4848 26.8722 38.4171 27.4931 39.1467C28.1036 39.8643 28.2043 39.887 27.8183 39.2201C26.9087 37.6483 26.2517 35.4426 26.0615 33.3223C26.0236 32.8992 25.9661 32.2999 25.9337 31.9905C25.9013 31.6811 25.8595 30.6545 25.8408 29.7092C25.8221 28.7639 25.7915 27.7725 25.7728 27.5061C25.7296 26.8927 25.7754 26.8875 26.3199 27.4436C27.1449 28.2863 27.722 29.3416 28.0887 30.678C28.1453 30.8842 28.2174 31.1374 28.2488 31.2405C28.44 31.8676 28.6968 33.632 28.8718 35.5217C29.2296 39.3846 29.9475 42.0225 30.9075 43.0015C31.1206 43.2189 31.3264 43.3967 31.3649 43.3967C31.4159 43.3967 31.4348 41.9096 31.4348 37.8957ZM32.5277 43.3811C32.5087 43.3038 32.5011 40.7374 32.5108 37.678L32.5285 32.1155L32.8282 31.3967C33.8536 28.9376 34.863 27.1985 36.3289 25.3655C37.3127 24.1353 39.2587 22.2092 39.5178 22.2092C39.6522 22.2092 39.671 22.2996 39.7475 23.3144C39.8471 24.6345 39.9697 25.8571 40.1539 27.3655C40.461 29.8806 40.4834 32.3604 40.2133 33.928C40.0359 34.9573 39.6917 36.1667 39.5408 36.2911C38.375 37.2521 36.4445 39.2542 34.8585 41.1467C33.7976 42.4127 32.7598 43.5236 32.6391 43.5225C32.5968 43.5221 32.5466 43.4584 32.5277 43.3811ZM33.1051 43.0061C33.7473 42.3553 34.1833 41.1758 34.7742 38.4905C34.8793 38.013 35.0329 36.7767 35.1275 35.6467C35.2737 33.9009 35.7263 31.2472 36.0284 30.3655C36.1855 29.9068 36.5695 29.0144 36.6873 28.8342C36.7435 28.7483 36.8092 28.6358 36.8333 28.5842C36.9555 28.323 37.0911 28.1482 37.5926 27.605C37.893 27.2796 38.1614 27.0363 38.189 27.0644C38.2413 27.1178 38.1578 31.7918 38.0909 32.553C37.8907 34.8294 37.2989 37.0498 36.4317 38.7778C36.2578 39.1243 36.1247 39.4354 36.136 39.469C36.1472 39.5026 36.5549 39.0994 37.042 38.5728C37.7896 37.7646 38.3525 37.2233 39.445 36.262C39.6386 36.0916 39.9715 34.8769 40.163 33.6417C40.4098 32.05 40.3054 29.013 39.9064 26.178C39.8217 25.5761 39.7629 24.9544 39.6195 23.1484C39.5827 22.6852 39.5419 22.2955 39.5287 22.2823C39.4772 22.2308 38.7991 22.8412 37.9195 23.731C35.6423 26.0345 33.9486 28.6834 32.8056 31.7291L32.6223 32.2178V37.8072C32.6223 40.8815 32.6442 43.3967 32.671 43.3967C32.6977 43.3967 32.8931 43.2209 33.1051 43.0061ZM40.9973 34.9092C40.9973 34.8473 41.0536 34.5449 41.1224 34.2373C41.4294 32.8657 41.4101 28.8378 41.0868 26.7717C41.0629 26.6189 41.0706 26.5812 41.1125 26.6467C41.2874 26.9205 41.4235 28.8319 41.4333 31.1518C41.4407 32.9062 41.4095 33.2885 41.1751 34.3208C41.1026 34.64 41.0556 34.9134 41.0706 34.9284C41.0855 34.9433 41.2791 34.8353 41.5007 34.6883C41.9607 34.383 42.6223 34.0064 42.6223 34.0498C42.6223 34.0658 42.4887 34.1559 42.3254 34.2498C42.1621 34.3438 41.8259 34.5559 41.5782 34.7212C41.0857 35.0499 40.9973 35.0785 40.9973 34.9092ZM22.8847 34.6003C22.4897 33.2766 22.48 27.3529 22.8718 26.7248C22.9256 26.6387 22.9329 26.6686 22.9066 26.8655C22.5902 29.2323 22.6056 33.0217 22.9376 34.5032C23.0163 34.8543 22.9803 34.9204 22.8847 34.6003ZM31.9175 30.6657C31.9016 30.6381 31.8534 30.503 31.8103 30.3655C31.4005 29.0592 30.2124 26.8889 29.2442 25.678C28.9969 25.3686 28.8852 25.1999 28.9962 25.303C29.7312 25.9863 31.0972 28.3099 31.7489 29.9853C32.0015 30.6348 32.0055 30.6355 32.2215 30.0686C32.8255 28.4829 34.2994 25.9573 35.0026 25.303L35.2713 25.053L34.955 25.428C34.0299 26.5249 32.8139 28.6666 32.2598 30.1751C32.0894 30.6387 31.9866 30.7862 31.9175 30.6657Z" fill="#78DEFC"/>
<path d="M26.0371 43.6081C25.166 43.4964 24.1877 43.2968 23.7485 43.1409C23.5588 43.0736 23.0598 42.9218 22.6397 42.8035C18.288 41.5783 14.5667 37.8498 12.7519 32.8966C12.4015 31.9401 12.2945 31.6867 12.2178 31.6319C12.1771 31.6028 12.1829 31.5856 12.2336 31.585C12.2777 31.5845 12.3273 31.6192 12.344 31.6622C12.3639 31.7137 12.5285 31.7429 12.8264 31.7479C13.5778 31.7604 16.5921 32.3044 16.7817 32.4617C16.8178 32.4916 16.8835 32.665 16.9277 32.847C16.972 33.0289 17.0459 33.2903 17.0919 33.4278C17.1379 33.5653 17.2632 34.0153 17.3704 34.4278C18.3139 38.0588 20.8659 41.6166 23.4853 42.9529C23.8423 43.1351 24.8389 43.3622 25.9605 43.5171C26.473 43.5879 26.9066 43.66 26.924 43.6774C26.9669 43.7204 26.83 43.7097 26.0371 43.6081ZM37.3098 43.6658C37.3958 43.6514 37.9069 43.5721 38.4456 43.4895C39.5812 43.3155 40.4921 43.0311 41.0052 42.6906C41.197 42.5632 41.3744 42.4591 41.3993 42.4591C41.4994 42.4591 42.3759 41.6883 42.9365 41.1074C44.1739 39.8251 45.0904 38.4305 45.9706 36.4903C46.3651 35.6207 46.6011 34.8367 47.0332 32.9601C47.0845 32.7372 47.1504 32.531 47.1796 32.5018C47.2739 32.4075 49.3731 31.9648 50.4661 31.8087C51.0504 31.7252 51.5848 31.6353 51.6536 31.6088C51.7557 31.5695 51.7661 31.5771 51.7101 31.6505C51.6725 31.6999 51.6048 31.8809 51.5596 32.0528C51.4223 32.5754 50.9521 33.7507 50.5571 34.5583C48.4459 38.8754 45.2782 41.727 41.3723 42.8267C40.977 42.938 40.3725 43.1159 40.029 43.2221C39.4123 43.4127 37.705 43.7164 37.3411 43.7003C37.1738 43.6929 37.1704 43.6892 37.3098 43.6658ZM30.9075 43.0014C29.9476 42.0223 29.2296 39.3844 28.8718 35.5216C28.6968 33.6318 28.4401 31.8675 28.2488 31.2403C28.2174 31.1372 28.1454 30.8841 28.0888 30.6778C27.7221 29.3415 27.1449 28.2861 26.3199 27.4434C25.7755 26.8873 25.7296 26.8925 25.7728 27.5059C25.7915 27.7723 25.8222 28.7638 25.8408 29.7091C25.8595 30.6544 25.9013 31.6809 25.9337 31.9903C25.9661 32.2997 26.0236 32.899 26.0616 33.3221C26.2517 35.4425 26.9087 37.6482 27.8184 39.22C28.2043 39.8868 28.1037 39.8641 27.4931 39.1466C26.8723 38.4169 25.945 37.4846 25.1931 36.8341C24.4057 36.1528 24.442 36.2163 24.1581 35.0216C23.5935 32.6455 23.5369 30.3094 23.9671 27.1466C24.2065 25.3867 24.2815 24.5876 24.3498 23.0684C24.3728 22.5566 24.4177 22.1466 24.4507 22.1466C24.5503 22.1466 26.9396 24.5444 27.3588 25.065C29.2436 27.4059 30.2618 29.1658 31.157 31.6299L31.4348 32.3946V37.8956C31.4348 41.9094 31.4159 43.3966 31.3649 43.3966C31.3265 43.3966 31.1206 43.2187 30.9075 43.0014ZM32.6223 37.8071V32.2176L32.8057 31.729C33.9487 28.6832 35.6423 26.0343 37.9196 23.7308C38.7992 22.8411 39.4772 22.2306 39.5287 22.2822C39.5419 22.2953 39.5828 22.6851 39.6195 23.1482C39.7629 24.9543 39.8218 25.5759 39.9065 26.1778C40.3055 29.0128 40.4099 32.0498 40.1631 33.6415C39.9715 34.8768 39.6387 36.0914 39.4451 36.2618C38.3526 37.2231 37.7897 37.7644 37.042 38.5727C36.5549 39.0992 36.1472 39.5025 36.136 39.4688C36.1248 39.4352 36.2579 39.1242 36.4318 38.7776C37.2989 37.0496 37.8908 34.8292 38.0909 32.5528C38.1578 31.7917 38.2414 27.1176 38.189 27.0642C38.1614 27.0361 37.893 27.2794 37.5926 27.6049C37.0911 28.148 36.9556 28.3229 36.8333 28.5841C36.8092 28.6356 36.7435 28.7481 36.6873 28.8341C36.5696 29.0142 36.1855 29.9066 36.0284 30.3653C35.7264 31.247 35.2737 33.9007 35.1275 35.6466C35.0329 36.7766 34.8794 38.0128 34.7743 38.4903C34.1833 41.1756 33.7473 42.3551 33.1051 43.0059C32.8931 43.2208 32.6978 43.3966 32.671 43.3966C32.6442 43.3966 32.6223 40.8813 32.6223 37.8071ZM22.612 34.7539C22.1177 34.3782 19.9717 33.2506 19.1302 32.9244C18.5898 32.7149 18.5697 32.682 18.2178 31.4335C17.7419 29.7453 17.6166 28.3678 17.6345 25.0222L17.6467 22.7403L17.688 25.4591C17.7451 29.2198 17.8499 30.1197 18.4448 31.9591C18.6714 32.6597 18.7085 32.7026 19.2786 32.9235C19.5192 33.0167 20.2293 33.3587 20.8567 33.6834C21.484 34.0082 21.9973 34.2478 21.9973 34.2158C21.9973 34.1839 21.8417 33.9232 21.6514 33.6365C20.1593 31.388 19.1368 27.659 19.1972 24.6861L19.2161 23.7568L19.9348 24.2711C20.7375 24.8454 21.4557 25.4397 22.2203 26.1622C22.7107 26.6255 22.83 26.7037 22.8881 26.5997C22.9025 26.5739 22.9016 26.595 22.8861 26.6466C22.4517 28.0888 22.4612 33.3142 22.9006 34.6298C23.0159 34.975 22.9437 35.006 22.612 34.7539ZM41.0603 34.8846C41.0605 34.8396 41.1141 34.5778 41.1793 34.3028C41.4027 33.3607 41.441 32.8906 41.434 31.1778C41.4246 28.8781 41.3285 27.5215 41.1064 26.5528C41.0907 26.4841 41.0898 26.463 41.1046 26.5059C41.157 26.6582 41.2924 26.578 41.8759 26.049C42.9122 25.1095 44.7142 23.7176 44.7926 23.796C44.8697 23.8731 44.8814 24.7415 44.8175 25.6466C44.6007 28.7159 43.6716 31.7421 42.347 33.6934C41.9366 34.298 41.974 34.3201 42.7005 33.902C43.2183 33.604 44.8212 32.833 45.1077 32.744C45.432 32.6433 45.8861 31.051 46.1604 29.0528C46.2348 28.5106 46.2763 27.5321 46.3102 25.5216L46.357 22.7403L46.3392 25.5528C46.3167 29.1274 46.1446 30.5503 45.5455 32.1153C45.302 32.7515 45.4186 32.6582 44.1223 33.2537C43.3503 33.6084 41.9902 34.3511 41.4794 34.697C41.0869 34.9627 41.0598 34.9749 41.0603 34.8846ZM31.7489 29.9852C31.126 28.3837 29.7069 25.9449 29.0607 25.3653C28.984 25.2966 28.8654 25.1559 28.7971 25.0528C28.6912 24.8929 28.7008 24.8975 28.8625 25.0841C29.1091 25.3686 29.1264 25.3435 29.3626 24.3584C29.815 22.4721 30.6982 20.3493 31.6019 18.9768C32.0382 18.314 32.0029 18.3202 32.3695 18.8422C33.235 20.0746 34.2832 22.6835 34.7141 24.6778C34.847 25.293 34.8844 25.3375 35.1059 25.1439C35.2008 25.0609 35.1344 25.1471 34.9581 25.3354C34.1547 26.1939 32.8145 28.5119 32.2215 30.0684C32.0055 30.6354 32.0016 30.6347 31.7489 29.9852Z" fill="#41AACD"/>
<path d="M31.7578 51.1544C31.7114 51.125 31.6246 50.8135 31.562 50.4522C31.3694 49.34 31.066 48.6194 30.4412 47.7901C29.9196 47.0979 28.8558 46.2063 28.3661 46.0509C28.1752 45.9903 28.2287 45.9051 28.4817 45.8667C29.5986 45.6973 30.767 45.2835 31.5027 44.797C31.7575 44.6284 31.987 44.4811 32.0126 44.4697C32.0383 44.4582 32.1789 44.552 32.3251 44.6779C32.8939 45.1679 34.0926 45.6288 35.2223 45.7919C35.8988 45.8895 35.917 45.9346 35.3904 46.207C33.8603 46.9983 32.7277 48.6629 32.4334 50.5529C32.3905 50.8279 32.3342 51.0765 32.3082 51.1054C32.2822 51.1343 32.312 50.8738 32.3744 50.5265C32.7131 48.6406 33.7638 47.0399 35.1673 46.2716C35.7845 45.9338 35.7876 45.9244 35.3007 45.8693C34.3039 45.7565 32.9439 45.2506 32.2942 44.7508L31.9973 44.5224L31.7095 44.7421C31.1303 45.1842 29.8753 45.6838 28.9545 45.8387C28.3129 45.9466 28.3115 45.9482 28.6798 46.1496C30.2144 46.9888 31.3634 48.6712 31.628 50.4664C31.7174 51.073 31.7496 51.1307 32.0176 51.1643L32.216 51.1891L32.0285 51.1982C31.9254 51.2031 31.8036 51.1835 31.7578 51.1544ZM23.216 44.8915C22.6118 44.8102 22.554 44.7665 23.1223 44.8207C24.074 44.9114 26.7968 44.8681 27.4348 44.752C28.2206 44.6091 29.0534 44.4019 29.2473 44.3011L29.4035 44.2199L29.2473 44.1871C29.1613 44.1691 28.9082 44.138 28.6848 44.1181C28.4613 44.0981 28.0254 44.0268 27.716 43.9596C27.4067 43.8924 26.6473 43.7666 26.0285 43.6801C25.0117 43.538 24.0323 43.333 23.5285 43.157C23.4254 43.1209 23.0457 43.0176 22.6848 42.9273C18.2475 41.8173 14.0846 37.4777 12.3731 32.1779C12.1889 31.6074 12.2532 31.6462 11.3315 31.5499L10.5285 31.466L11.1848 31.4979C11.5457 31.5154 11.9395 31.5554 12.0598 31.5868C12.3014 31.65 12.2694 31.5892 12.7507 32.8966C14.5788 37.8627 18.2877 41.5783 22.6397 42.8036C23.0598 42.9219 23.5588 43.0737 23.7485 43.141C24.2052 43.303 25.1658 43.4952 26.091 43.6096C26.5035 43.6607 27.0809 43.7585 27.3741 43.827C27.6672 43.8955 28.1594 43.9842 28.4678 44.0241C28.7762 44.064 29.1692 44.1174 29.341 44.1428L29.6535 44.1888L29.3669 44.3174C29.0497 44.4596 28.3101 44.6532 27.4973 44.8066C26.8655 44.9259 23.9076 44.9846 23.216 44.8915ZM40.1971 44.8953C43.4951 44.6158 46.901 42.9718 49.2808 40.5107C51.2374 38.4874 52.3236 36.6689 53.969 32.6623C54.4033 31.6045 54.4084 31.6489 53.8456 31.5773L53.466 31.529L53.8937 31.5498C54.4779 31.5783 54.4767 31.5737 54.1206 32.4509C52.5274 36.3751 51.4029 38.31 49.5485 40.3174C47.1436 42.9208 43.3334 44.8019 40.216 44.9248L39.5285 44.9519L40.1971 44.8953ZM36.4227 44.7688C35.6133 44.6262 34.799 44.4225 34.4996 44.2876L34.2785 44.188L35.049 44.1104C35.4727 44.0677 36.1477 43.9624 36.549 43.8763C36.9502 43.7903 37.7283 43.6578 38.278 43.5819C38.8277 43.506 39.5449 43.362 39.8718 43.2618C40.1986 43.1617 40.7192 43.012 41.0285 42.9292C44.6797 41.9526 47.5163 39.7305 49.6829 36.1497C50.4965 34.805 51.3183 33.007 51.5638 32.0345C51.6097 31.8525 51.6823 31.6746 51.7251 31.6391C51.8111 31.5677 53.0324 31.4389 53.298 31.4733C53.3904 31.4852 53.1426 31.5185 52.7473 31.5472C51.7909 31.6168 51.7893 31.6176 51.6562 32.0945C51.4781 32.7329 50.9656 33.9966 50.5685 34.7767C48.3101 39.2134 45.032 42.0373 40.966 43.0487C40.7254 43.1085 40.3035 43.2266 40.0285 43.311C39.4761 43.4807 38.4759 43.6646 37.5513 43.7666C37.22 43.8032 36.7129 43.8892 36.4243 43.9577C35.9911 44.0606 35.013 44.1975 34.6223 44.2099C34.2169 44.2228 35.6999 44.5992 36.8304 44.7704C37.2488 44.8337 37.4785 44.8858 37.341 44.886C37.2035 44.8863 36.7903 44.8335 36.4227 44.7688ZM20.716 44.3098C17.0353 43.087 14.0145 40.5567 12.008 37.0156C10.9728 35.1886 9.53698 31.9591 9.64029 31.6899C9.68089 31.5841 10.1303 31.492 10.3781 31.5387C10.4868 31.5592 10.4656 31.5695 10.302 31.5756C9.57203 31.603 9.57121 31.6064 10.0221 32.7199C12.662 39.2387 15.838 42.6415 20.8098 44.2777C21.2051 44.4078 21.4863 44.515 21.4348 44.5159C21.3832 44.5167 21.0598 44.424 20.716 44.3098ZM20.9035 33.7053C20.3192 33.3997 19.616 33.0605 19.341 32.9516C19.066 32.8426 18.7951 32.7084 18.7389 32.6532C18.5068 32.4251 17.9842 30.4843 17.8738 29.4404C17.8367 29.0898 17.7928 28.7044 17.7761 28.5841C17.7594 28.4638 17.7205 26.9732 17.6895 25.2716C17.6212 21.5181 17.4678 19.927 16.9961 18.0796C16.8196 17.3881 16.83 17.3824 17.7289 17.6781C19.0877 18.125 21.1197 19.2181 22.5603 20.2769C23.4846 20.9563 23.4337 20.8722 23.3709 21.6154L23.318 22.2404L23.3394 21.5976L23.3607 20.9549L22.7414 20.4859C21.2652 19.368 19.1635 18.2138 17.7551 17.7476C16.9445 17.4794 16.9046 17.4911 17.03 17.9604C17.2833 18.9088 17.5124 20.3754 17.6254 21.7716C17.6657 22.2701 17.7076 22.7101 17.7185 22.7495C17.7362 22.8132 18.3813 23.2018 19.1848 23.6327C19.8692 23.9998 20.9936 24.8732 22.1959 25.9717C22.5285 26.2757 22.8164 26.499 22.8356 26.4679C22.8871 26.3846 23.1131 24.4566 23.2103 23.2716C23.2568 22.7044 23.2981 22.381 23.3021 22.5529C23.3147 23.1014 23.0001 26.1947 22.8968 26.5372C22.8427 26.7169 22.757 26.6694 22.2203 26.1622C21.4557 25.4398 20.7375 24.8455 19.9348 24.2712L19.216 23.7569L19.1972 24.6861C19.1367 27.661 20.1591 31.3878 21.6536 33.64C21.8451 33.9285 21.9937 34.1862 21.9839 34.2127C21.9741 34.2392 21.4879 34.0109 20.9035 33.7053ZM42.347 33.6935C43.6716 31.7422 44.6007 28.7159 44.8175 25.6466C44.8814 24.7416 44.8697 23.8732 44.7926 23.7961C44.7141 23.7176 42.9122 25.1096 41.8758 26.0491C41.5512 26.3433 41.2511 26.5841 41.2089 26.5841C41.0743 26.5841 40.9393 25.576 40.712 22.8731C40.5287 20.6939 40.4411 21.008 41.4376 20.2724C42.963 19.1462 45.0554 18.0437 46.534 17.587C47.072 17.4208 47.1449 17.4224 47.106 17.5997C47.0891 17.6771 46.9887 18.1763 46.8831 18.7091C46.6206 20.0327 46.6383 19.9567 46.6295 19.793C46.623 19.6718 46.9398 18.0091 47.0356 17.6622C47.0832 17.4897 47.0536 17.489 46.534 17.6495C45.4824 17.9743 43.4204 18.9798 42.4046 19.6632C41.7536 20.1011 40.703 20.8791 40.6527 20.9606C40.5648 21.1028 41.0785 26.3031 41.1925 26.4253C41.2271 26.4624 41.3852 26.3535 41.6072 26.1396C42.8813 24.9119 44.3015 23.8544 45.4973 23.2431C45.8926 23.041 46.2316 22.8525 46.2507 22.8241C46.2698 22.7957 46.3214 22.3434 46.3655 21.8189C46.4096 21.2945 46.4841 20.6544 46.5311 20.3966C46.628 19.865 46.6132 20.063 46.4564 21.3966C46.3975 21.8983 46.3459 23.2737 46.3123 25.2404C46.2744 27.4552 46.2319 28.5105 46.1587 29.0529C45.8915 31.0318 45.4327 32.6431 45.1077 32.744C44.8212 32.833 43.2183 33.6041 42.7005 33.902C41.974 34.3201 41.9366 34.2981 42.347 33.6935ZM28.4889 24.6001C28.1933 24.2304 27.6102 23.5701 27.1931 23.1329C26.776 22.6957 26.4348 22.3264 26.4348 22.3123C26.4348 22.2352 26.9202 20.9615 27.1649 20.3966C28.1558 18.1088 30.0207 15 31.3763 13.3758C31.9488 12.6899 31.9545 12.6875 32.2573 13.006C33.9344 14.7698 36.623 19.4071 37.4383 21.9423L37.5836 22.3943L37.1959 22.7452C36.7948 23.1082 35.9774 24.0268 35.3479 24.8219C35.1491 25.073 34.9554 25.2681 34.9174 25.2554C34.8794 25.2427 34.7591 24.8685 34.65 24.4239C34.1149 22.2411 33.2225 20.0568 32.3695 18.8422C32.0029 18.3202 32.0382 18.314 31.6018 18.9769C30.7002 20.3463 29.8692 22.3346 29.3773 24.2993C29.2487 24.813 29.1171 25.2421 29.0849 25.2528C29.0527 25.2636 28.7845 24.9698 28.4889 24.6001ZM29.1221 24.7872C29.5073 22.8424 30.6162 20.1382 31.5953 18.756C32.0158 18.1624 32.0414 18.1614 32.4381 18.7247C33.3389 20.004 34.3806 22.5386 34.8142 24.506C34.9778 25.2482 34.9648 25.2382 35.2584 24.8449C35.6354 24.3399 36.6428 23.202 37.0937 22.7716L37.5195 22.3654L37.3124 21.7716C36.6567 19.8915 35.2151 17.1439 33.8303 15.1347C33.361 14.4539 32.1761 12.9372 32.0549 12.8623C31.7313 12.6623 29.1827 16.4042 27.9085 18.9502C27.3585 20.0491 26.4973 22.0963 26.4973 22.3048C26.4973 22.3148 26.7683 22.5998 27.0996 22.938C27.7213 23.5726 28.5985 24.5873 28.8327 24.9427C29.0134 25.217 29.0398 25.2028 29.1221 24.7872Z" fill="#176B8B"/>
<path d="M31.7678 51.0718C31.7334 51.027 31.6705 50.7547 31.628 50.4665C31.3634 48.6713 30.2144 46.9889 28.6798 46.1497C28.3116 45.9483 28.3129 45.9467 28.9545 45.8388C29.8753 45.6839 31.1303 45.1843 31.7095 44.7422L31.9973 44.5225L32.2942 44.7509C32.9439 45.2507 34.304 45.7566 35.3008 45.8694C35.7877 45.9245 35.7845 45.9339 35.1674 46.2717C33.7696 47.0369 32.7047 48.655 32.3785 50.5093L32.2719 51.1155L32.0511 51.1343C31.9231 51.1451 31.8041 51.1189 31.7678 51.0718ZM37.9973 44.8933C37.1485 44.8376 36.2746 44.7023 35.382 44.4886C34.7463 44.3364 34.4194 44.2165 34.6223 44.21C35.013 44.1976 35.9911 44.0607 36.4244 43.9578C36.7129 43.8893 37.2201 43.8033 37.5513 43.7667C38.4759 43.6647 39.4761 43.4808 40.0286 43.3111C40.3036 43.2267 40.7254 43.1086 40.9661 43.0488C45.032 42.0374 48.3102 39.2135 50.5685 34.7768C50.9656 33.9967 51.4781 32.733 51.6563 32.0946C51.7444 31.7786 51.7994 31.6857 51.9289 31.6343C52.1482 31.5471 53.9829 31.547 54.1958 31.6342L54.3631 31.7026L53.9703 32.6591C52.3235 36.6693 51.2379 38.4869 49.2808 40.5108C46.849 43.0257 43.4617 44.6361 40.0598 44.8948C39.1478 44.9641 39.0738 44.9641 37.9973 44.8933ZM23.0598 44.8045C19.8615 44.3389 16.5779 42.5791 14.3598 40.1419C13.1177 38.7771 12.2747 37.5088 11.2465 35.4576C10.6117 34.1912 9.68481 32.003 9.68481 31.7707C9.68481 31.6089 10.0831 31.5496 11.0598 31.5663C12.2187 31.586 12.1523 31.5452 12.4633 32.4304C14.336 37.7615 18.2978 41.83 22.6848 42.9274C23.0458 43.0177 23.4254 43.121 23.5286 43.1571C24.0324 43.3331 25.0117 43.5381 26.0286 43.6802C26.6473 43.7667 27.4067 43.8925 27.7161 43.9597C28.0254 44.0269 28.4614 44.0982 28.6848 44.1182C28.9083 44.1381 29.1614 44.1692 29.2473 44.1872L29.4036 44.22L29.2473 44.3012C29.0648 44.3961 28.2538 44.6014 27.4973 44.7442C26.7512 44.8851 23.8814 44.9241 23.0598 44.8045ZM22.3918 26.1472C21.3302 25.1452 19.8699 24.0002 19.1848 23.6328C18.3813 23.2019 17.7362 22.8133 17.7186 22.7496C17.7077 22.7102 17.6657 22.2702 17.6254 21.7717C17.5125 20.3755 17.2834 18.9089 17.03 17.9605C16.9047 17.4912 16.9446 17.4795 17.7551 17.7477C19.166 18.2147 21.2651 19.368 22.7474 20.4906L23.3727 20.9641L23.3401 21.3835C23.3222 21.6142 23.2651 22.3795 23.2132 23.0842C23.1067 24.5301 22.8909 26.4039 22.8233 26.4691C22.7987 26.4928 22.6045 26.3479 22.3918 26.1472ZM41.1546 26.3811C41.0482 26.0644 40.5856 21.0692 40.6527 20.9607C40.703 20.8792 41.7537 20.1012 42.4046 19.6633C43.4204 18.9799 45.4824 17.9744 46.534 17.6496C47.0535 17.4891 47.0831 17.4899 47.0359 17.6623C46.8081 18.4951 46.4672 20.6014 46.3709 21.7717C46.3327 22.2358 46.2899 22.6717 46.2758 22.7405C46.258 22.8276 46.0274 22.9781 45.5144 23.2374C44.3372 23.8325 42.3251 25.3428 41.4395 26.2961C41.2724 26.476 41.1944 26.4993 41.1546 26.3811ZM28.8327 24.9428C28.5985 24.5874 27.7214 23.5727 27.0997 22.9381C26.7684 22.5999 26.4973 22.3149 26.4973 22.3049C26.4973 22.0964 27.3585 20.0492 27.9085 18.9503C29.1827 16.4043 31.7313 12.6624 32.0549 12.8624C32.1761 12.9373 33.361 14.454 33.8303 15.1348C35.2151 17.144 36.6567 19.8916 37.3124 21.7717L37.5195 22.3655L37.0938 22.7717C36.6428 23.2021 35.6354 24.34 35.2584 24.845C34.9648 25.2383 34.9779 25.2483 34.8143 24.5061C34.3807 22.5387 33.3389 20.0041 32.4381 18.7248C32.0415 18.1615 32.0158 18.1625 31.5953 18.7561C30.6162 20.1382 29.5073 22.8425 29.1221 24.7873C29.0398 25.2029 29.0134 25.2171 28.8327 24.9428Z" fill="#022F46"/>
</svg>
