<svg width="64" height="64" viewBox="0 0 64 64" fill="none" xmlns="http://www.w3.org/2000/svg">
<rect width="64" height="64" rx="32" fill="#FFFCE9"/>
<path d="M38.5694 46.518C40.0395 45.9265 42.1763 44.2729 43.472 42.7241C44.3687 41.6521 44.5997 41.0864 44.2947 40.7096C44.0603 40.4203 43.8371 40.5574 42.874 41.5827C40.4892 44.1216 38.6681 45.254 36.0375 45.8342C35.2038 46.018 35.1575 45.9388 35.7368 45.3193C35.9931 45.0451 36.5153 44.4479 36.8971 43.9921C38.5281 42.0451 39.0668 41.4527 40.5376 39.9878C41.3917 39.1372 42.0905 38.4127 42.0905 38.3778C42.0905 38.283 42.414 38.0161 42.6504 37.9159C42.7646 37.8674 43.2576 37.5315 43.7459 37.1694C45.6564 35.7525 48.1575 34.4335 50.0886 33.8244L50.614 33.6587L50.7062 33.19C50.8451 32.4837 50.8579 32.4761 52.5263 32.1093C53.7396 31.8425 56.4573 31.3921 56.7619 31.4073C57.0652 31.4225 56.234 31.6012 55.1187 31.7606C53.7498 31.9563 51.1221 32.5106 51.0042 32.6286C50.9676 32.6651 50.8852 32.9233 50.8209 33.2023C50.2799 35.5518 49.9845 36.5333 49.4906 37.622C48.3886 40.051 47.2413 41.797 45.6921 43.4024C44.9902 44.1297 43.8928 45.0946 43.7675 45.0946C43.7363 45.0946 43.5143 45.2251 43.2741 45.3845C42.623 45.8167 41.4926 46.1668 40.0305 46.3893C38.0191 46.6953 38.1597 46.6829 38.5694 46.518ZM24.211 46.3887C22.7915 46.1755 21.7798 45.9374 21.3393 45.7126C18.0605 44.0399 14.8654 39.5852 13.6843 35.0398C13.5501 34.5234 13.3932 33.96 13.3356 33.7879C13.278 33.6157 13.1855 33.2885 13.1301 33.0607C13.0747 32.8328 12.9924 32.6158 12.9472 32.5783C12.7097 32.3813 8.93589 31.7003 7.99446 31.6846C7.68261 31.6794 7.42733 31.6476 7.42717 31.614C7.42701 31.5803 7.34764 31.5209 7.25081 31.482C7.1379 31.4366 7.11919 31.4095 7.19864 31.4063C7.26679 31.4035 7.34673 31.4255 7.37629 31.4551C7.40585 31.4846 7.68461 31.5186 7.99575 31.5306C8.68008 31.5569 10.4908 31.858 11.9054 32.1808C13.0672 32.4458 13.1757 32.5185 13.2613 33.0898C13.3316 33.5585 13.4819 33.7109 14.0243 33.8631C15.5261 34.2846 18.3729 35.7573 19.9074 36.9066C22.3279 38.7194 24.2048 40.5563 27.1541 43.9992C27.6518 44.5802 28.2238 45.2291 28.4253 45.4413C28.8939 45.9348 28.8224 46.0134 28.0593 45.8437C25.3378 45.2382 23.5168 44.1094 21.202 41.5931C20.2052 40.5094 20.0322 40.4019 19.763 40.6994C19.0166 41.5242 22.197 44.9194 24.9893 46.2786C25.3313 46.4451 25.5602 46.5776 25.4979 46.5731C25.4356 46.5686 24.8565 46.4856 24.211 46.3887ZM30.8119 46.1081C30.4177 45.7704 29.5306 44.7743 28.2023 43.1776C26.6768 41.3438 24.9046 39.4701 23.5266 38.2338C22.3617 37.1888 22.4358 37.3018 22.1419 36.1206C21.3345 32.8757 21.2379 30.138 21.7903 26.1587C22.074 24.1147 22.2055 22.6876 22.2624 21.0335C22.3088 19.6875 22.3281 19.5859 22.5381 19.5859C22.7349 19.5859 25.5299 22.3238 26.2681 23.2398C28.5421 26.0612 29.9606 28.5036 31.0463 31.4672L31.3714 32.3547L31.3515 39.3637C31.3384 43.9514 31.3045 46.3807 31.2532 46.3959C31.2102 46.4086 31.0116 46.2791 30.8119 46.1081ZM31.2924 39.3813V32.4943L30.9446 31.537C29.8239 28.452 28.5491 26.2486 26.1894 23.318C25.6646 22.6662 22.6732 19.6642 22.5485 19.6642C22.5072 19.6642 22.4511 20.1775 22.4222 20.8183C22.3367 22.7203 22.2428 23.7207 21.9431 25.924C21.4045 29.8838 21.4754 32.8084 22.1822 35.7832C22.5376 37.279 22.4922 37.1995 23.478 38.0524C24.4194 38.8669 25.5802 40.034 26.3575 40.9475C27.1219 41.8458 27.2479 41.8743 26.7647 41.0394C25.6259 39.0716 24.8033 36.3101 24.5653 33.6555C24.5178 33.1258 24.4458 32.3755 24.4052 31.9882C24.3647 31.6008 24.3124 30.3156 24.2889 29.1321C24.2655 27.9486 24.2272 26.7074 24.2037 26.3739C24.1497 25.606 24.2071 25.5994 24.8887 26.2957C25.9216 27.3507 26.6441 28.6719 27.1032 30.345C27.1741 30.6032 27.2643 30.9201 27.3037 31.0492C27.5431 31.8344 27.8645 34.0433 28.0836 36.4092C28.5316 41.2453 29.4304 44.5478 30.6322 45.7736C30.899 46.0457 31.1567 46.2684 31.2049 46.2684C31.2687 46.2684 31.2924 44.4065 31.2924 39.3813ZM32.6606 46.2488C32.6368 46.152 32.6274 42.9389 32.6396 39.1087L32.6617 32.1447L33.0369 31.2448C34.3207 28.1661 35.5844 25.9888 37.4197 23.6939C38.6513 22.1538 41.0876 19.7424 41.412 19.7424C41.5802 19.7424 41.6037 19.8556 41.6996 21.1261C41.8242 22.7788 41.9778 24.3094 42.2084 26.1979C42.5928 29.3467 42.6209 32.4512 42.2827 34.4138C42.0606 35.7025 41.6298 37.2166 41.4408 37.3724C39.9813 38.5756 37.5644 41.082 35.5787 43.4514C34.2505 45.0364 32.9512 46.4272 32.8001 46.4258C32.7471 46.4253 32.6844 46.3456 32.6606 46.2488ZM33.3835 45.7793C34.1875 44.9645 34.7334 43.4878 35.4732 40.1259C35.6048 39.5281 35.7971 37.9804 35.9155 36.5657C36.0985 34.3799 36.6652 31.0576 37.0434 29.9537C37.2401 29.3795 37.7209 28.2622 37.8683 28.0367C37.9386 27.9291 38.0209 27.7882 38.0511 27.7237C38.2041 27.3967 38.3739 27.1778 39.0017 26.4978C39.3778 26.0903 39.7138 25.7857 39.7483 25.8209C39.8139 25.8877 39.7093 31.7395 39.6255 32.6924C39.375 35.5423 38.634 38.3222 37.5484 40.4856C37.3307 40.9195 37.164 41.3089 37.1781 41.351C37.1921 41.3931 37.7025 40.8882 38.3123 40.229C39.2484 39.2171 39.9531 38.5394 41.3209 37.3359C41.5633 37.1226 41.98 35.6019 42.2198 34.0554C42.5288 32.0626 42.3981 28.2605 41.8986 24.7112C41.7925 23.9576 41.7188 23.1793 41.5393 20.9182C41.4933 20.3384 41.4421 19.8504 41.4256 19.8339C41.3611 19.7694 40.5122 20.5337 39.411 21.6476C36.56 24.5315 34.4396 27.8478 33.0086 31.661L32.7791 32.2727V39.2705C32.7791 43.1193 32.8065 46.2684 32.84 46.2684C32.8735 46.2684 33.1181 46.0483 33.3835 45.7793ZM43.2642 35.6423C43.2642 35.5648 43.3348 35.1863 43.4209 34.8011C43.8052 33.0839 43.7811 28.0412 43.3764 25.4545C43.3464 25.2632 43.3561 25.216 43.4085 25.298C43.6275 25.6408 43.7978 28.0337 43.8101 30.9382C43.8194 33.1347 43.7804 33.6133 43.4869 34.9057C43.3962 35.3053 43.3373 35.6475 43.356 35.6663C43.3748 35.685 43.6171 35.5498 43.8945 35.3657C44.4704 34.9836 45.2987 34.5121 45.2987 34.5664C45.2987 34.5864 45.1314 34.6991 44.927 34.8168C44.7226 34.9345 44.3016 35.2 43.9916 35.407C43.375 35.8184 43.2642 35.8543 43.2642 35.6423ZM20.588 35.2555C20.0934 33.5983 20.0813 26.1821 20.5719 25.3958C20.6392 25.2879 20.6484 25.3253 20.6154 25.5719C20.2194 28.535 20.2386 33.2793 20.6543 35.134C20.7528 35.5736 20.7077 35.6564 20.588 35.2555ZM31.8967 30.3295C31.8769 30.295 31.8165 30.1259 31.7625 29.9537C31.2494 28.3183 29.762 25.6013 28.5499 24.0852C28.2402 23.6978 28.1005 23.4866 28.2393 23.6157C29.1595 24.4712 30.8697 27.3803 31.6856 29.4778C32.0019 30.291 32.0069 30.2918 32.2773 29.5821C33.0335 27.5969 34.8788 24.4349 35.7592 23.6157L36.0956 23.3027L35.6996 23.7722C34.5413 25.1455 33.019 27.8268 32.3252 29.7154C32.112 30.2958 31.9832 30.4804 31.8967 30.3295Z" fill="#78DEFC"/>
<path d="M24.5348 46.5328C23.4442 46.393 22.2193 46.143 21.6695 45.948C21.4319 45.8637 20.8073 45.6736 20.2813 45.5255C14.8332 43.9916 10.1743 39.3236 7.90222 33.1224C7.46348 31.9249 7.32952 31.6077 7.23347 31.5391C7.18248 31.5026 7.18974 31.4812 7.25333 31.4804C7.30847 31.4798 7.37063 31.5232 7.39147 31.577C7.41642 31.6414 7.62243 31.678 7.99543 31.6843C8.93614 31.7 12.71 32.381 12.9473 32.5779C12.9924 32.6154 13.0747 32.8325 13.1302 33.0603C13.1856 33.2881 13.278 33.6154 13.3356 33.7875C13.3932 33.9596 13.5501 34.523 13.6843 35.0395C14.8656 39.5853 18.0605 44.0395 21.34 45.7126C21.787 45.9406 23.0346 46.225 24.4387 46.4189C25.0804 46.5075 25.6233 46.5978 25.6451 46.6196C25.6988 46.6734 25.5274 46.66 24.5348 46.5328ZM38.6477 46.6051C38.7553 46.587 39.3952 46.4877 40.0696 46.3843C41.4914 46.1664 42.6318 45.8105 43.2742 45.3841C43.5144 45.2247 43.7364 45.0943 43.7676 45.0943C43.8929 45.0943 44.9903 44.1293 45.6921 43.402C47.2413 41.7966 48.3887 40.0507 49.4906 37.6216C49.9846 36.5329 50.28 35.5514 50.821 33.2019C50.8853 32.9229 50.9677 32.6647 51.0042 32.6282C51.1223 32.5101 53.7504 31.9558 55.1188 31.7604C55.8504 31.6559 56.5194 31.5433 56.6055 31.5102C56.7334 31.4609 56.7464 31.4704 56.6763 31.5623C56.6292 31.6242 56.5444 31.8509 56.4879 32.066C56.316 32.7203 55.7273 34.1917 55.2328 35.2029C52.5896 40.6076 48.6238 44.1777 43.7338 45.5545C43.2389 45.6939 42.4821 45.9166 42.052 46.0495C41.2799 46.2881 39.1424 46.6685 38.6868 46.6483C38.4774 46.639 38.4732 46.6344 38.6477 46.6051ZM30.6323 45.7732C29.4304 44.5475 28.5316 41.2449 28.0837 36.4088C27.8646 34.0429 27.5431 31.834 27.3037 31.0488C27.2643 30.9197 27.1742 30.6028 27.1033 30.3446C26.6442 28.6716 25.9216 27.3503 24.8888 26.2953C24.2072 25.599 24.1498 25.6056 24.2038 26.3735C24.2273 26.7071 24.2656 27.9483 24.289 29.1318C24.3124 30.3153 24.3647 31.6005 24.4053 31.9878C24.4458 32.3751 24.5179 33.1254 24.5654 33.6551C24.8034 36.3097 25.6259 39.0712 26.7648 41.039C27.248 41.8739 27.122 41.8455 26.3576 40.9471C25.5803 40.0336 24.4194 38.8665 23.478 38.052C22.4923 37.1991 22.5377 37.2786 22.1823 35.7828C21.4755 32.808 21.4045 29.8834 21.9431 25.9236C22.2428 23.7203 22.3367 22.7199 22.4223 20.818C22.4511 20.1771 22.5073 19.6638 22.5486 19.6638C22.6733 19.6638 25.6646 22.6658 26.1894 23.3176C28.5491 26.2483 29.8239 28.4516 30.9447 31.5366L31.2924 32.4939V39.3809C31.2924 44.4061 31.2688 46.268 31.2049 46.268C31.1568 46.268 30.8991 46.0453 30.6323 45.7732ZM32.7791 39.2702V32.2723L33.0087 31.6606C34.4397 27.8474 36.5601 24.5312 39.4111 21.6472C40.5123 20.5333 41.3612 19.7691 41.4257 19.8336C41.4422 19.8501 41.4934 20.338 41.5394 20.9178C41.7189 23.1789 41.7926 23.9573 41.8986 24.7108C42.3981 28.2601 42.5289 32.0623 42.2199 34.0551C41.9801 35.6015 41.5634 37.1223 41.3209 37.3356C39.9532 38.5391 39.2485 39.2168 38.3124 40.2286C37.7026 40.8879 37.1922 41.3927 37.1781 41.3506C37.1641 41.3085 37.3307 40.9191 37.5484 40.4853C38.6341 38.3218 39.375 35.542 39.6256 32.692C39.7094 31.7391 39.814 25.8874 39.7484 25.8205C39.7139 25.7853 39.3779 26.0899 39.0017 26.4974C38.3739 27.1774 38.2042 27.3963 38.0512 27.7233C38.021 27.7879 37.9387 27.9287 37.8684 28.0363C37.7209 28.2618 37.2401 29.3791 37.0434 29.9534C36.6653 31.0572 36.0986 34.3796 35.9156 36.5653C35.7971 37.98 35.6049 39.5277 35.4733 40.1255C34.7334 43.4875 34.1876 44.9641 33.3836 45.7789C33.1182 46.0479 32.8736 46.268 32.8401 46.268C32.8066 46.268 32.7791 43.119 32.7791 39.2702ZM20.2466 35.4478C19.6277 34.9774 16.9411 33.5657 15.8875 33.1572C15.2109 32.895 15.1858 32.8538 14.7452 31.2907C14.1495 29.1771 13.9926 27.4525 14.015 23.264L14.0303 20.4072L14.082 23.8109C14.1535 28.5192 14.2847 29.6458 15.0295 31.9487C15.3132 32.8259 15.3596 32.8796 16.0733 33.1561C16.3745 33.2728 17.2636 33.7009 18.049 34.1075C18.8344 34.5141 19.477 34.8141 19.477 34.7741C19.477 34.7341 19.2822 34.4077 19.044 34.0488C17.1759 31.2338 15.8957 26.5651 15.9714 22.8432L15.995 21.6798L16.8949 22.3237C17.8998 23.0427 18.799 23.7867 19.7563 24.6912C20.3702 25.2713 20.5195 25.3691 20.5923 25.239C20.6103 25.2067 20.6092 25.2331 20.5898 25.2976C20.046 27.1032 20.0579 33.6453 20.608 35.2924C20.7523 35.7245 20.6619 35.7634 20.2466 35.4478ZM43.3431 35.6114C43.3434 35.555 43.4105 35.2272 43.4921 34.883C43.7718 33.7035 43.8198 33.115 43.811 30.9706C43.7992 28.0914 43.6789 26.393 43.4009 25.1803C43.3812 25.0942 43.3801 25.0678 43.3987 25.1216C43.4642 25.3122 43.6337 25.2118 44.3642 24.5495C45.6617 23.3733 47.9177 21.6307 48.0158 21.7288C48.1124 21.8254 48.127 22.9126 48.047 24.0457C47.7756 27.8883 46.6124 31.6771 44.9541 34.12C44.4403 34.8769 44.4871 34.9046 45.3967 34.3811C46.0449 34.0081 48.0517 33.0428 48.4104 32.9313C48.8163 32.8053 49.3849 30.8118 49.7283 28.3102C49.8215 27.6314 49.8734 26.4063 49.9158 23.8892L49.9744 20.4072L49.9522 23.9283C49.924 28.4036 49.7085 30.185 48.9585 32.1443C48.6536 32.9407 48.7996 32.8239 47.1767 33.5696C46.2101 34.0136 44.5074 34.9435 43.8679 35.3764C43.3765 35.7092 43.3425 35.7244 43.3431 35.6114ZM31.6857 29.4774C30.9058 27.4725 29.1291 24.4192 28.3201 23.6936C28.2242 23.6075 28.0757 23.4314 27.9901 23.3023C27.8575 23.1022 27.8696 23.1079 28.072 23.3414C28.3807 23.6977 28.4024 23.6663 28.6981 22.4329C29.2644 20.0714 30.3703 17.4137 31.5016 15.6954C32.0479 14.8656 32.0037 14.8733 32.4626 15.5269C33.5462 17.0698 34.8585 20.336 35.3979 22.8328C35.5644 23.603 35.6112 23.6587 35.8884 23.4164C36.0074 23.3125 35.9241 23.4203 35.7035 23.6561C34.6976 24.7309 33.0197 27.6329 32.2773 29.5817C32.007 30.2915 32.002 30.2906 31.6857 29.4774Z" fill="#41AACD"/>
<path d="M31.6967 55.9806C31.6387 55.9438 31.53 55.5537 31.4516 55.1015C31.2105 53.7089 30.8307 52.8068 30.0484 51.7686C29.3954 50.902 28.0636 49.7858 27.4504 49.5912C27.2115 49.5153 27.2784 49.4086 27.5951 49.3606C28.9935 49.1484 30.4563 48.6304 31.3773 48.0213C31.6964 47.8102 31.9837 47.6259 32.0158 47.6115C32.0479 47.5972 32.2239 47.7146 32.407 47.8723C33.1191 48.4857 34.6198 49.0627 36.0341 49.2668C36.8811 49.3891 36.9039 49.4456 36.2446 49.7866C34.329 50.7773 32.911 52.8613 32.5425 55.2275C32.4889 55.5717 32.4184 55.883 32.3858 55.9192C32.3533 55.9554 32.3906 55.6292 32.4687 55.1944C32.8927 52.8334 34.2082 50.8293 35.9653 49.8675C36.738 49.4445 36.7419 49.4328 36.1324 49.3638C34.8844 49.2226 33.1817 48.5892 32.3682 47.9635L31.9966 47.6776L31.6362 47.9526C30.9111 48.5061 29.3399 49.1315 28.1871 49.3255C27.3839 49.4606 27.3822 49.4626 27.8432 49.7147C29.7644 50.7653 31.203 52.8716 31.5342 55.1191C31.6462 55.8787 31.6865 55.9509 32.022 55.9929L32.2704 56.024L32.0357 56.0353C31.9066 56.0416 31.754 56.0169 31.6967 55.9806ZM21.0028 48.1396C20.2464 48.0378 20.1739 47.9831 20.8854 48.051C22.0769 48.1646 25.4858 48.1103 26.2845 47.965C27.2683 47.7861 28.3109 47.5266 28.5537 47.4005L28.7493 47.2988L28.5537 47.2578C28.4461 47.2352 28.1292 47.1963 27.8494 47.1713C27.5697 47.1464 27.0239 47.0571 26.6366 46.9729C26.2493 46.8888 25.2986 46.7313 24.5239 46.623C23.2509 46.4451 22.0248 46.1885 21.394 45.9681C21.2649 45.923 20.7896 45.7936 20.3377 45.6805C14.7824 44.2909 9.57058 38.8579 7.42786 32.2227C7.19723 31.5085 7.27778 31.5571 6.12382 31.4365L5.11854 31.3315L5.94014 31.3713C6.39202 31.3932 6.88498 31.4434 7.0356 31.4827C7.33815 31.5618 7.29798 31.4856 7.90056 33.1225C10.1893 39.3399 14.8327 43.9916 20.2812 45.5256C20.8072 45.6737 21.4319 45.8638 21.6694 45.9481C22.2412 46.1509 23.4439 46.3915 24.6022 46.5348C25.1186 46.5987 25.8415 46.7211 26.2085 46.8069C26.5755 46.8927 27.1917 47.0037 27.5778 47.0537C27.9639 47.1036 28.4559 47.1705 28.671 47.2022L29.0623 47.2599L28.7034 47.4209C28.3063 47.5989 27.3803 47.8412 26.3627 48.0334C25.5718 48.1827 21.8687 48.2561 21.0028 48.1396ZM42.2625 48.1443C46.3913 47.7944 50.6554 45.7362 53.6348 42.6551C56.0844 40.1219 57.4443 37.8452 59.5042 32.8291C60.0481 31.5049 60.0544 31.5604 59.3498 31.4707L58.8746 31.4103L59.41 31.4364C60.1414 31.472 60.14 31.4662 59.6941 32.5645C57.6995 37.4775 56.2916 39.8998 53.97 42.4131C50.9592 45.6724 46.189 48.0275 42.2861 48.1813L41.4254 48.2153L42.2625 48.1443ZM37.537 47.986C36.5237 47.8075 35.5042 47.5524 35.1293 47.3835L34.8526 47.2589L35.8172 47.1617C36.3476 47.1083 37.1927 46.9764 37.6951 46.8687C38.1975 46.7609 39.1716 46.5951 39.8598 46.5001C40.548 46.4051 41.4459 46.2248 41.8551 46.0993C42.2643 45.9739 42.916 45.7866 43.3033 45.683C47.8745 44.4602 51.4258 41.6782 54.1383 37.1952C55.1569 35.5118 56.1858 33.2607 56.4931 32.0432C56.5506 31.8154 56.6415 31.5926 56.695 31.5481C56.8027 31.4588 58.3317 31.2976 58.6643 31.3405C58.7799 31.3555 58.4697 31.3972 57.9748 31.4331C56.7774 31.5202 56.7754 31.5212 56.6088 32.1183C56.3858 32.9175 55.7442 34.4996 55.247 35.4763C52.4196 41.0308 48.3155 44.5663 43.2251 45.8325C42.9238 45.9074 42.3957 46.0552 42.0514 46.161C41.3597 46.3734 40.1075 46.6037 38.95 46.7314C38.5353 46.7771 37.9004 46.8847 37.5391 46.9706C36.9966 47.0994 35.7721 47.2708 35.283 47.2864C34.7754 47.3025 36.632 47.7737 38.0474 47.988C38.5712 48.0673 38.8589 48.1325 38.6867 48.1328C38.5146 48.1331 37.9972 48.0671 37.537 47.986ZM17.8729 47.4114C13.2647 45.8805 9.48286 42.7126 6.97078 38.2793C5.67471 35.992 3.87715 31.9487 4.00648 31.6117C4.05732 31.4792 4.62 31.364 4.93023 31.4225C5.06624 31.4481 5.03976 31.461 4.83489 31.4687C3.92104 31.503 3.92 31.5072 4.48453 32.9012C7.78961 41.0626 11.7658 45.3227 17.9903 47.3712C18.4852 47.5341 18.8373 47.6683 18.7727 47.6694C18.7082 47.6705 18.3032 47.5544 17.8729 47.4114ZM18.1076 34.1349C17.376 33.7523 16.4957 33.3277 16.1514 33.1913C15.8072 33.0549 15.4679 32.8868 15.3976 32.8177C15.107 32.5322 14.4527 30.1024 14.3145 28.7955C14.2681 28.3565 14.213 27.8741 14.1922 27.7234C14.1713 27.5728 14.1225 25.7066 14.0838 23.5763C13.9983 18.8771 13.8062 16.8851 13.2157 14.5722C12.9947 13.7065 13.0078 13.6993 14.1332 14.0695C15.8343 14.6291 18.3783 15.9975 20.1819 17.3232C21.339 18.1737 21.2753 18.0684 21.1966 18.9988L21.1305 19.7813L21.1572 18.9767L21.1839 18.172L20.4086 17.5848C18.5604 16.1852 15.9291 14.7402 14.1659 14.1566C13.1511 13.8207 13.1012 13.8354 13.2581 14.4229C13.5753 15.6104 13.8621 17.4464 14.0035 19.1945C14.054 19.8185 14.1065 20.3694 14.1201 20.4187C14.1422 20.4984 14.9499 20.9849 15.9558 21.5244C16.8127 21.984 18.2204 23.0775 19.7256 24.4528C20.1421 24.8334 20.5025 25.1129 20.5265 25.0741C20.591 24.9697 20.874 22.5559 20.9956 21.0724C21.0539 20.3623 21.1056 19.9574 21.1105 20.1725C21.1263 20.8593 20.7324 24.732 20.6032 25.1608C20.5354 25.3857 20.4281 25.3263 19.7562 24.6913C18.7989 23.7868 17.8997 23.0428 16.8948 22.3238L15.9949 21.68L15.9713 22.8433C15.8956 26.5678 17.1757 31.2336 19.0467 34.0531C19.2864 34.4144 19.4725 34.7371 19.4602 34.7702C19.4479 34.8034 18.8392 34.5175 18.1076 34.1349ZM44.954 34.1202C46.6123 31.6772 47.7755 27.8884 48.0469 24.0458C48.1269 22.9127 48.1123 21.8255 48.0157 21.729C47.9176 21.6308 45.6616 23.3734 44.3641 24.5497C43.9577 24.9181 43.582 25.2195 43.5292 25.2195C43.3606 25.2195 43.1916 23.9574 42.9071 20.5735C42.6776 17.8452 42.5679 18.2384 43.8154 17.3174C45.7252 15.9075 48.3448 14.5272 50.1959 13.9555C50.8696 13.7474 50.9608 13.7494 50.9121 13.9714C50.8909 14.0683 50.7653 14.6933 50.633 15.3603C50.3043 17.0174 50.3266 16.9223 50.3156 16.7174C50.3074 16.5655 50.7041 14.4839 50.8239 14.0497C50.8835 13.8337 50.8465 13.8328 50.1959 14.0337C48.8794 14.4403 46.2978 15.6992 45.0261 16.5547C44.2111 17.103 42.8957 18.0771 42.8327 18.179C42.7227 18.3571 43.3659 24.8676 43.5087 25.0207C43.552 25.0672 43.7499 24.9308 44.0279 24.663C45.623 23.126 47.401 21.8021 48.898 21.0367C49.393 20.7837 49.8174 20.5476 49.8413 20.5121C49.8652 20.4766 49.9298 19.9103 49.985 19.2537C50.0402 18.5971 50.1335 17.7958 50.1923 17.473C50.3137 16.8074 50.2952 17.0553 50.0989 18.725C50.025 19.3531 49.9604 21.075 49.9183 23.5372C49.871 26.31 49.8177 27.6312 49.7261 28.3103C49.3916 30.7879 48.8172 32.8051 48.4103 32.9315C48.0516 33.0429 46.0448 34.0083 45.3966 34.3813C44.487 34.9047 44.4402 34.8771 44.954 34.1202ZM27.6042 22.7356C27.2341 22.2727 26.5041 21.4461 25.9819 20.8988C25.4598 20.3514 25.0325 19.889 25.0325 19.8713C25.0325 19.7748 25.6403 18.1802 25.9466 17.473C27.1872 14.6087 29.5219 10.7166 31.2192 8.68321C31.9359 7.82449 31.943 7.82153 32.3221 8.22024C34.4218 10.4285 37.7877 16.2342 38.8085 19.4082L38.9905 19.974L38.5051 20.4133C38.0029 20.8678 36.9795 22.0178 36.1914 23.0133C35.9426 23.3277 35.7 23.5719 35.6524 23.556C35.6048 23.5401 35.4542 23.0717 35.3177 22.515C34.6478 19.7822 33.5304 17.0476 32.4625 15.527C32.0036 14.8734 32.0478 14.8657 31.5015 15.6955C30.3727 17.41 29.3323 19.8993 28.7164 22.3591C28.5554 23.0022 28.3907 23.5394 28.3504 23.5528C28.31 23.5662 27.9743 23.1985 27.6042 22.7356ZM28.3969 22.9699C28.8792 20.5351 30.2675 17.1494 31.4933 15.419C32.0197 14.6758 32.0519 14.6747 32.5484 15.3799C33.6762 16.9815 34.9804 20.1547 35.5233 22.6178C35.7281 23.5469 35.7117 23.5344 36.0793 23.0421C36.5513 22.4099 37.8125 20.9852 38.3771 20.4464L38.9102 19.9378L38.6509 19.1945C37.83 16.8407 36.0251 13.4007 34.2914 10.8854C33.7039 10.0329 32.2204 8.13415 32.0687 8.04038C31.6635 7.78999 28.4728 12.4747 26.8775 15.6622C26.189 17.0379 25.1108 19.601 25.1108 19.862C25.1108 19.8745 25.4501 20.2313 25.8649 20.6547C26.6432 21.4492 27.7414 22.7196 28.0346 23.1645C28.2609 23.5079 28.2939 23.4902 28.3969 22.9699Z" fill="#176B8B"/>
<path d="M31.7093 55.8772C31.6662 55.8212 31.5875 55.4802 31.5343 55.1194C31.203 52.8719 29.7645 50.7656 27.8432 49.7149C27.3822 49.4628 27.3839 49.4609 28.1871 49.3258C29.34 49.1318 30.9112 48.5064 31.6363 47.9529L31.9966 47.6779L32.3683 47.9637C33.1818 48.5894 34.8845 49.2229 36.1324 49.3641C36.742 49.4331 36.7381 49.4448 35.9654 49.8678C34.2155 50.8257 32.8822 52.8516 32.4739 55.173L32.3404 55.9319L32.064 55.9555C31.9038 55.9691 31.7547 55.9362 31.7093 55.8772ZM39.5084 48.1421C38.4457 48.0722 37.3516 47.9029 36.2341 47.6353C35.4382 47.4448 35.0289 47.2947 35.283 47.2866C35.7722 47.271 36.9967 47.0996 37.5391 46.9708C37.9004 46.885 38.5353 46.7774 38.95 46.7316C40.1075 46.6039 41.3598 46.3736 42.0514 46.1612C42.3957 46.0555 42.9239 45.9077 43.2252 45.8327C48.3156 44.5666 52.4197 41.0311 55.2471 35.4766C55.7442 34.4999 56.3858 32.9178 56.6089 32.1186C56.7193 31.723 56.7881 31.6067 56.9502 31.5423C57.2248 31.4331 59.5217 31.433 59.7883 31.5421L59.9977 31.6278L59.506 32.8252C57.4442 37.8459 56.0851 40.1215 53.6349 42.6554C50.5904 45.8039 46.3496 47.82 42.0906 48.1439C40.9488 48.2307 40.8561 48.2306 39.5084 48.1421ZM20.8072 48.0308C16.803 47.4479 12.6921 45.2447 9.91515 42.1935C8.36004 40.4847 7.30471 38.8969 6.0174 36.3288C5.22266 34.7434 4.06226 32.0039 4.06226 31.713C4.06226 31.5104 4.56094 31.4363 5.7837 31.4571C7.23453 31.4818 7.15146 31.4307 7.54079 32.539C9.88538 39.2133 14.8453 44.3069 20.3377 45.6808C20.7896 45.7938 21.265 45.9232 21.3941 45.9684C22.0248 46.1888 23.2509 46.4453 24.524 46.6233C25.2986 46.7316 26.2493 46.889 26.6367 46.9732C27.024 47.0574 27.5698 47.1466 27.8495 47.1716C28.1292 47.1966 28.4461 47.2355 28.5537 47.258L28.7494 47.299L28.5537 47.4007C28.3252 47.5195 27.3099 47.7766 26.3628 47.9554C25.4287 48.1318 21.8358 48.1806 20.8072 48.0308ZM19.9709 24.6726C18.6419 23.4181 16.8136 21.9847 15.9559 21.5247C14.9499 20.9852 14.1423 20.4987 14.1202 20.419C14.1065 20.3697 14.0541 19.8187 14.0036 19.1947C13.8622 17.4467 13.5753 15.6106 13.2582 14.4232C13.1012 13.8356 13.1512 13.821 14.1659 14.1569C15.9324 14.7415 18.5603 16.1853 20.4161 17.5908L21.199 18.1836L21.1582 18.7087C21.1357 18.9975 21.0642 19.9557 20.9992 20.8379C20.866 22.6481 20.5958 24.9941 20.5112 25.0756C20.4803 25.1053 20.2372 24.924 19.9709 24.6726ZM43.4612 24.9655C43.328 24.569 42.7488 18.3152 42.8328 18.1793C42.8958 18.0774 44.2112 17.1033 45.0262 16.555C46.2979 15.6995 48.8795 14.4406 50.196 14.034C50.8464 13.8331 50.8834 13.834 50.8244 14.0499C50.5391 15.0925 50.1124 17.7295 49.9918 19.1947C49.944 19.7757 49.8904 20.3215 49.8728 20.4076C49.8504 20.5167 49.5618 20.705 48.9195 21.0297C47.4457 21.7748 44.9267 23.6656 43.8179 24.8591C43.6087 25.0843 43.511 25.1135 43.4612 24.9655ZM28.0347 23.1648C27.7415 22.7198 26.6433 21.4495 25.865 20.6549C25.4502 20.2315 25.1108 19.8748 25.1108 19.8622C25.1108 19.6012 26.1891 17.0382 26.8776 15.6625C28.4729 12.4749 31.6636 7.79025 32.0687 8.04064C32.2204 8.13441 33.704 10.0332 34.2915 10.8856C36.0252 13.4009 37.83 16.8409 38.651 19.1947L38.9102 19.9381L38.3772 20.4467C37.8126 20.9854 36.5514 22.4101 36.0794 23.0423C35.7118 23.5347 35.7281 23.5472 35.5234 22.618C34.9805 20.155 33.6763 16.9817 32.5485 15.3802C32.0519 14.6749 32.0198 14.6761 31.4933 15.4193C30.2675 17.1497 28.8792 20.5353 28.397 22.9702C28.294 23.4904 28.2609 23.5082 28.0347 23.1648Z" fill="#022F46"/>
</svg>
