<svg width="64" height="64" viewBox="0 0 64 64" fill="none" xmlns="http://www.w3.org/2000/svg">
<rect width="64" height="64" rx="32" fill="#202124"/>
<path d="M38.5696 46.518C40.0397 45.9265 42.1766 44.2729 43.4722 42.7241C44.369 41.6521 44.6 41.0864 44.2949 40.7096C44.0606 40.4203 43.8374 40.5574 42.8743 41.5827C40.4894 44.1216 38.6684 45.254 36.0377 45.8342C35.2041 46.018 35.1578 45.9388 35.737 45.3193C35.9934 45.0451 36.5155 44.4479 36.8973 43.9921C38.5284 42.0451 39.067 41.4527 40.5379 39.9878C41.392 39.1372 42.0908 38.4127 42.0908 38.3778C42.0908 38.283 42.4142 38.0161 42.6506 37.9159C42.7649 37.8674 43.2579 37.5315 43.7461 37.1694C45.6566 35.7525 48.1578 34.4335 50.0888 33.8244L50.6142 33.6587L50.7064 33.19C50.8454 32.4837 50.8582 32.4761 52.5265 32.1093C53.7398 31.8425 56.4575 31.3921 56.7622 31.4073C57.0655 31.4225 56.2342 31.6012 55.119 31.7606C53.7501 31.9563 51.1224 32.5106 51.0044 32.6286C50.9679 32.6651 50.8854 32.9233 50.8212 33.2023C50.2802 35.5518 49.9847 36.5333 49.4908 37.622C48.3888 40.051 47.2415 41.797 45.6923 43.4024C44.9905 44.1297 43.8931 45.0946 43.7678 45.0946C43.7366 45.0946 43.5145 45.2251 43.2744 45.3845C42.6233 45.8167 41.4929 46.1668 40.0307 46.3893C38.0193 46.6953 38.1599 46.6829 38.5696 46.518ZM24.2112 46.3887C22.7917 46.1755 21.7801 45.9374 21.3395 45.7126C18.0608 44.0399 14.8657 39.5852 13.6845 35.0398C13.5503 34.5234 13.3934 33.96 13.3358 33.7879C13.2782 33.6157 13.1857 33.2885 13.1303 33.0607C13.0749 32.8328 12.9926 32.6158 12.9475 32.5783C12.71 32.3813 8.93613 31.7003 7.9947 31.6846C7.68286 31.6794 7.42757 31.6476 7.42741 31.614C7.42725 31.5803 7.34789 31.5209 7.25105 31.482C7.13815 31.4366 7.11944 31.4095 7.19889 31.4063C7.26703 31.4035 7.34697 31.4255 7.37653 31.4551C7.4061 31.4846 7.68485 31.5186 7.99599 31.5306C8.68033 31.5569 10.491 31.858 11.9056 32.1808C13.0675 32.4458 13.1759 32.5185 13.2616 33.0898C13.3319 33.5585 13.4821 33.7109 14.0245 33.8631C15.5264 34.2846 18.3731 35.7573 19.9076 36.9066C22.3282 38.7194 24.205 40.5563 27.1543 43.9992C27.6521 44.5802 28.2241 45.2291 28.4255 45.4413C28.8941 45.9348 28.8226 46.0134 28.0595 45.8437C25.338 45.2382 23.517 44.1094 21.2023 41.5931C20.2054 40.5094 20.0324 40.4019 19.7632 40.6994C19.0168 41.5242 22.1972 44.9194 24.9895 46.2786C25.3316 46.4451 25.5604 46.5776 25.4982 46.5731C25.4359 46.5686 24.8568 46.4856 24.2112 46.3887ZM30.8122 46.1081C30.4179 45.7704 29.5309 44.7743 28.2026 43.1776C26.6771 41.3438 24.9049 39.4701 23.5269 38.2338C22.362 37.1888 22.436 37.3018 22.1421 36.1206C21.3347 32.8757 21.2381 30.138 21.7905 26.1587C22.0742 24.1147 22.2057 22.6876 22.2627 21.0335C22.309 19.6875 22.3284 19.5859 22.5384 19.5859C22.7352 19.5859 25.5301 22.3238 26.2683 23.2398C28.5423 26.0612 29.9608 28.5036 31.0466 31.4672L31.3717 32.3547L31.3517 39.3637C31.3386 43.9514 31.3047 46.3807 31.2535 46.3959C31.2105 46.4086 31.0119 46.2791 30.8122 46.1081ZM31.2926 39.3813V32.4943L30.9448 31.537C29.8241 28.452 28.5493 26.2486 26.1896 23.318C25.6648 22.6662 22.6734 19.6642 22.5488 19.6642C22.5075 19.6642 22.4513 20.1775 22.4225 20.8183C22.3369 22.7203 22.243 23.7207 21.9433 25.924C21.4047 29.8838 21.4756 32.8084 22.1824 35.7832C22.5379 37.279 22.4924 37.1995 23.4782 38.0524C24.4196 38.8669 25.5805 40.034 26.3578 40.9475C27.1221 41.8458 27.2482 41.8743 26.765 41.0394C25.6261 39.0716 24.8036 36.3101 24.5655 33.6555C24.518 33.1258 24.446 32.3755 24.4055 31.9882C24.3649 31.6008 24.3126 30.3156 24.2892 29.1321C24.2658 27.9486 24.2274 26.7074 24.204 26.3739C24.15 25.606 24.2073 25.5994 24.889 26.2957C25.9218 27.3507 26.6444 28.6719 27.1035 30.345C27.1743 30.6032 27.2645 30.9201 27.3039 31.0492C27.5433 31.8344 27.8647 34.0433 28.0839 36.4092C28.5318 41.2453 29.4306 44.5478 30.6325 45.7736C30.8993 46.0457 31.157 46.2684 31.2051 46.2684C31.269 46.2684 31.2926 44.4065 31.2926 39.3813ZM32.6609 46.2488C32.6371 46.152 32.6276 42.9389 32.6398 39.1087L32.6619 32.1447L33.0372 31.2448C34.3209 28.1661 35.5847 25.9888 37.4199 23.6939C38.6516 22.1538 41.0879 19.7424 41.4123 19.7424C41.5805 19.7424 41.604 19.8556 41.6998 21.1261C41.8245 22.7788 41.978 24.3094 42.2086 26.1979C42.5931 29.3467 42.6212 32.4512 42.283 34.4138C42.0609 35.7025 41.63 37.2166 41.441 37.3724C39.9816 38.5756 37.5646 41.082 35.579 43.4514C34.2508 45.0364 32.9515 46.4272 32.8004 46.4258C32.7474 46.4253 32.6846 46.3456 32.6609 46.2488ZM33.3838 45.7793C34.1878 44.9645 34.7336 43.4878 35.4735 40.1259C35.6051 39.5281 35.7973 37.9804 35.9158 36.5657C36.0988 34.3799 36.6655 31.0576 37.0436 29.9537C37.2403 29.3795 37.7211 28.2622 37.8685 28.0367C37.9389 27.9291 38.0212 27.7882 38.0514 27.7237C38.2044 27.3967 38.3741 27.1778 39.0019 26.4978C39.3781 26.0903 39.7141 25.7857 39.7486 25.8209C39.8142 25.8877 39.7096 31.7395 39.6258 32.6924C39.3752 35.5423 38.6343 38.3222 37.5486 40.4856C37.3309 40.9195 37.1643 41.3089 37.1783 41.351C37.1923 41.3931 37.7028 40.8882 38.3126 40.229C39.2486 39.2171 39.9534 38.5394 41.3211 37.3359C41.5635 37.1226 41.9802 35.6019 42.22 34.0554C42.529 32.0626 42.3983 28.2605 41.8988 24.7112C41.7927 23.9576 41.719 23.1793 41.5396 20.9182C41.4935 20.3384 41.4424 19.8504 41.4259 19.8339C41.3614 19.7694 40.5125 20.5337 39.4113 21.6476C36.5602 24.5315 34.4399 27.8478 33.0089 31.661L32.7793 32.2727V39.2705C32.7793 43.1193 32.8067 46.2684 32.8403 46.2684C32.8738 46.2684 33.1184 46.0483 33.3838 45.7793ZM43.2645 35.6423C43.2645 35.5648 43.335 35.1863 43.4212 34.8011C43.8054 33.0839 43.7814 28.0412 43.3766 25.4545C43.3467 25.2632 43.3563 25.216 43.4087 25.298C43.6277 25.6408 43.7981 28.0337 43.8103 30.9382C43.8196 33.1347 43.7806 33.6133 43.4872 34.9057C43.3964 35.3053 43.3375 35.6475 43.3563 35.6663C43.375 35.685 43.6173 35.5498 43.8947 35.3657C44.4706 34.9836 45.2989 34.5121 45.2989 34.5664C45.2989 34.5864 45.1317 34.6991 44.9272 34.8168C44.7228 34.9345 44.3019 35.2 43.9918 35.407C43.3753 35.8184 43.2645 35.8543 43.2645 35.6423ZM20.5883 35.2555C20.0937 33.5983 20.0815 26.1821 20.5721 25.3958C20.6394 25.2879 20.6486 25.3253 20.6157 25.5719C20.2196 28.535 20.2389 33.2793 20.6545 35.134C20.753 35.5736 20.7079 35.6564 20.5883 35.2555ZM31.8969 30.3295C31.8771 30.295 31.8167 30.1259 31.7627 29.9537C31.2496 28.3183 29.7623 25.6013 28.5501 24.0852C28.2404 23.6978 28.1007 23.4866 28.2396 23.6157C29.1597 24.4712 30.87 27.3803 31.6859 29.4778C32.0022 30.291 32.0071 30.2918 32.2775 29.5821C33.0337 27.5969 34.8791 24.4349 35.7594 23.6157L36.0958 23.3027L35.6998 23.7722C34.5416 25.1455 33.0192 27.8268 32.3255 29.7154C32.1122 30.2958 31.9834 30.4804 31.8969 30.3295Z" fill="#78DEFC"/>
<path d="M24.5349 46.5328C23.4443 46.393 22.2194 46.143 21.6696 45.948C21.4321 45.8637 20.8074 45.6736 20.2814 45.5255C14.8333 43.9916 10.1744 39.3236 7.90234 33.1224C7.4636 31.9249 7.32964 31.6077 7.23359 31.5391C7.1826 31.5026 7.18986 31.4812 7.25345 31.4804C7.3086 31.4798 7.37076 31.5232 7.39159 31.577C7.41654 31.6414 7.62255 31.678 7.99555 31.6843C8.93626 31.7 12.7101 32.381 12.9474 32.5779C12.9926 32.6154 13.0749 32.8325 13.1303 33.0603C13.1857 33.2881 13.2781 33.6154 13.3357 33.7875C13.3933 33.9596 13.5503 34.523 13.6845 35.0395C14.8657 39.5853 18.0607 44.0395 21.3401 45.7126C21.7871 45.9406 23.0347 46.225 24.4389 46.4189C25.0805 46.5075 25.6234 46.5978 25.6452 46.6196C25.699 46.6734 25.5275 46.66 24.5349 46.5328ZM38.6478 46.6051C38.7554 46.587 39.3953 46.4877 40.0698 46.3843C41.4915 46.1664 42.632 45.8105 43.2743 45.3841C43.5145 45.2247 43.7365 45.0943 43.7677 45.0943C43.893 45.0943 44.9904 44.1293 45.6922 43.402C47.2415 41.7966 48.3888 40.0507 49.4908 37.6216C49.9847 36.5329 50.2801 35.5514 50.8211 33.2019C50.8854 32.9229 50.9678 32.6647 51.0044 32.6282C51.1224 32.5101 53.7505 31.9558 55.1189 31.7604C55.8505 31.6559 56.5196 31.5433 56.6056 31.5102C56.7335 31.4609 56.7465 31.4704 56.6765 31.5623C56.6293 31.6242 56.5445 31.8509 56.488 32.066C56.3162 32.7203 55.7274 34.1917 55.2329 35.2029C52.5897 40.6076 48.6239 44.1777 43.7339 45.5545C43.239 45.6939 42.4822 45.9166 42.0521 46.0495C41.28 46.2881 39.1425 46.6685 38.6869 46.6483C38.4775 46.639 38.4733 46.6344 38.6478 46.6051ZM30.6324 45.7732C29.4306 44.5475 28.5318 41.2449 28.0838 36.4088C27.8647 34.0429 27.5432 31.834 27.3038 31.0488C27.2645 30.9197 27.1743 30.6028 27.1034 30.3446C26.6443 28.6716 25.9217 27.3503 24.8889 26.2953C24.2073 25.599 24.1499 25.6056 24.2039 26.3735C24.2274 26.7071 24.2657 27.9483 24.2891 29.1318C24.3125 30.3153 24.3649 31.6005 24.4054 31.9878C24.4459 32.3751 24.518 33.1254 24.5655 33.6551C24.8035 36.3097 25.6261 39.0712 26.7649 41.039C27.2481 41.8739 27.1221 41.8455 26.3577 40.9471C25.5804 40.0336 24.4195 38.8665 23.4782 38.052C22.4924 37.1991 22.5378 37.2786 22.1824 35.7828C21.4756 32.808 21.4046 29.8834 21.9433 25.9236C22.243 23.7203 22.3368 22.7199 22.4224 20.818C22.4512 20.1771 22.5074 19.6638 22.5487 19.6638C22.6734 19.6638 25.6647 22.6658 26.1896 23.3176C28.5493 26.2483 29.824 28.4516 30.9448 31.5366L31.2926 32.4939V39.3809C31.2926 44.4061 31.2689 46.268 31.205 46.268C31.1569 46.268 30.8992 46.0453 30.6324 45.7732ZM32.7793 39.2702V32.2723L33.0088 31.6606C34.4398 27.8474 36.5602 24.5312 39.4112 21.6472C40.5124 20.5333 41.3613 19.7691 41.4258 19.8336C41.4423 19.8501 41.4935 20.338 41.5395 20.9178C41.719 23.1789 41.7927 23.9573 41.8987 24.7108C42.3983 28.2601 42.529 32.0623 42.22 34.0551C41.9802 35.6015 41.5635 37.1223 41.3211 37.3356C39.9533 38.5391 39.2486 39.2168 38.3125 40.2286C37.7027 40.8879 37.1923 41.3927 37.1782 41.3506C37.1642 41.3085 37.3308 40.9191 37.5485 40.4853C38.6342 38.3218 39.3751 35.542 39.6257 32.692C39.7095 31.7391 39.8141 25.8874 39.7485 25.8205C39.714 25.7853 39.378 26.0899 39.0018 26.4974C38.3741 27.1774 38.2043 27.3963 38.0513 27.7233C38.0211 27.7879 37.9388 27.9287 37.8685 28.0363C37.7211 28.2618 37.2403 29.3791 37.0435 29.9534C36.6654 31.0572 36.0987 34.3796 35.9157 36.5653C35.7973 37.98 35.605 39.5277 35.4734 40.1255C34.7336 43.4875 34.1877 44.9642 33.3837 45.7789C33.1183 46.0479 32.8737 46.268 32.8402 46.268C32.8067 46.268 32.7793 43.119 32.7793 39.2702ZM20.2467 35.4478C19.6279 34.9774 16.9412 33.5657 15.8876 33.1572C15.2111 32.895 15.1859 32.8538 14.7453 31.2907C14.1496 29.1771 13.9927 27.4525 14.0151 23.264L14.0304 20.4072L14.0821 23.8109C14.1536 28.5192 14.2848 29.6458 15.0296 31.9487C15.3133 32.8259 15.3598 32.8796 16.0734 33.1561C16.3747 33.2728 17.2637 33.7009 18.0492 34.1075C18.8346 34.5141 19.4772 34.8141 19.4772 34.7741C19.4772 34.7341 19.2823 34.4077 19.0441 34.0488C17.176 31.2338 15.8959 26.5651 15.9715 22.8432L15.9952 21.6798L16.895 22.3237C17.8999 23.0427 18.7991 23.7867 19.7564 24.6912C20.3703 25.2713 20.5196 25.3691 20.5924 25.239C20.6105 25.2067 20.6093 25.2331 20.5899 25.2976C20.0461 27.1032 20.058 33.6453 20.6081 35.2924C20.7524 35.7245 20.662 35.7634 20.2467 35.4478ZM43.3432 35.6114C43.3435 35.555 43.4106 35.2272 43.4922 34.883C43.772 33.7035 43.8199 33.115 43.8112 30.9706C43.7994 28.0914 43.6791 26.393 43.401 25.1803C43.3813 25.0942 43.3803 25.0678 43.3988 25.1216C43.4643 25.3122 43.6338 25.2118 44.3643 24.5495C45.6618 23.3733 47.9178 21.6307 48.016 21.7288C48.1125 21.8254 48.1272 22.9126 48.0471 24.0457C47.7757 27.8883 46.6125 31.6771 44.9542 34.12C44.4404 34.8769 44.4872 34.9046 45.3968 34.3811C46.045 34.0081 48.0518 33.0428 48.4105 32.9313C48.8165 32.8053 49.385 30.8118 49.7284 28.3102C49.8216 27.6314 49.8736 26.4063 49.9159 23.8892L49.9745 20.4072L49.9523 23.9283C49.9241 28.4036 49.7086 30.185 48.9586 32.1443C48.6537 32.9407 48.7997 32.8239 47.1768 33.5696C46.2102 34.0136 44.5075 34.9435 43.868 35.3764C43.3766 35.7092 43.3426 35.7244 43.3432 35.6114ZM31.6858 29.4774C30.9059 27.4725 29.1292 24.4192 28.3202 23.6936C28.2243 23.6075 28.0758 23.4314 27.9903 23.3023C27.8577 23.1022 27.8697 23.1079 28.0721 23.3414C28.3808 23.6977 28.4025 23.6663 28.6982 22.4329C29.2646 20.0714 30.3704 17.4137 31.5017 15.6954C32.048 14.8656 32.0038 14.8733 32.4627 15.5269C33.5463 17.0698 34.8586 20.336 35.3981 22.8328C35.5645 23.603 35.6113 23.6587 35.8886 23.4164C36.0075 23.3125 35.9242 23.4203 35.7036 23.6561C34.6977 24.7309 33.0198 27.6329 32.2774 29.5817C32.0071 30.2915 32.0021 30.2906 31.6858 29.4774Z" fill="#41AACD"/>
<path d="M31.6968 55.9806C31.6388 55.9438 31.5301 55.5537 31.4518 55.1015C31.2106 53.7089 30.8308 52.8068 30.0485 51.7686C29.3955 50.902 28.0637 49.7858 27.4505 49.5912C27.2116 49.5153 27.2785 49.4086 27.5953 49.3606C28.9936 49.1484 30.4565 48.6304 31.3774 48.0213C31.6965 47.8102 31.9838 47.6259 32.0159 47.6115C32.048 47.5972 32.224 47.7146 32.4071 47.8723C33.1193 48.4857 34.62 49.0627 36.0342 49.2668C36.8812 49.3891 36.9041 49.4456 36.2447 49.7866C34.3291 50.7773 32.9111 52.8613 32.5426 55.2275C32.489 55.5717 32.4185 55.883 32.386 55.9192C32.3534 55.9554 32.3907 55.6292 32.4688 55.1944C32.8928 52.8334 34.2083 50.8293 35.9655 49.8675C36.7382 49.4445 36.7421 49.4328 36.1325 49.3638C34.8845 49.2226 33.1818 48.5892 32.3684 47.9635L31.9967 47.6776L31.6364 47.9526C30.9113 48.5061 29.34 49.1315 28.1872 49.3255C27.384 49.4606 27.3823 49.4626 27.8433 49.7147C29.7645 50.7653 31.2031 52.8716 31.5344 55.1191C31.6463 55.8787 31.6866 55.9509 32.0221 55.9929L32.2706 56.024L32.0358 56.0353C31.9067 56.0416 31.7542 56.0169 31.6968 55.9806ZM21.0029 48.1396C20.2465 48.0378 20.174 47.9831 20.8855 48.051C22.077 48.1646 25.4859 48.1103 26.2846 47.965C27.2684 47.7861 28.3111 47.5266 28.5538 47.4005L28.7494 47.2988L28.5538 47.2578C28.4462 47.2352 28.1293 47.1963 27.8496 47.1713C27.5698 47.1464 27.0241 47.0571 26.6367 46.9729C26.2494 46.8888 25.2987 46.7313 24.5241 46.623C23.251 46.4451 22.0249 46.1885 21.3941 45.9681C21.265 45.923 20.7897 45.7936 20.3378 45.6805C14.7825 44.2909 9.5707 38.8579 7.42798 32.2227C7.19735 31.5085 7.2779 31.5571 6.12394 31.4365L5.11866 31.3315L5.94026 31.3713C6.39214 31.3932 6.8851 31.4434 7.03572 31.4827C7.33827 31.5618 7.2981 31.4856 7.90068 33.1225C10.1895 39.3399 14.8328 43.9916 20.2813 45.5256C20.8073 45.6737 21.432 45.8638 21.6695 45.9481C22.2413 46.1509 23.444 46.3915 24.6023 46.5348C25.1187 46.5987 25.8416 46.7211 26.2086 46.8069C26.5756 46.8927 27.1918 47.0037 27.5779 47.0537C27.964 47.1036 28.456 47.1705 28.6712 47.2022L29.0624 47.2599L28.7036 47.4209C28.3065 47.5989 27.3804 47.8412 26.3629 48.0334C25.5719 48.1827 21.8688 48.2561 21.0029 48.1396ZM42.2626 48.1443C46.3915 47.7944 50.6556 45.7362 53.635 42.6551C56.0845 40.1219 57.4445 37.8452 59.5044 32.8291C60.0482 31.5049 60.0545 31.5604 59.3499 31.4707L58.8747 31.4103L59.4101 31.4364C60.1415 31.472 60.1401 31.4662 59.6942 32.5645C57.6996 37.4775 56.2917 39.8998 53.9701 42.4131C50.9593 45.6724 46.1891 48.0275 42.2862 48.1813L41.4255 48.2153L42.2626 48.1443ZM37.5371 47.986C36.5238 47.8075 35.5043 47.5524 35.1294 47.3835L34.8527 47.2589L35.8173 47.1617C36.3478 47.1083 37.1928 46.9764 37.6952 46.8687C38.1976 46.7609 39.1717 46.5951 39.8599 46.5001C40.5481 46.4051 41.446 46.2248 41.8552 46.0993C42.2644 45.9739 42.9161 45.7866 43.3035 45.683C47.8746 44.4602 51.4259 41.6783 54.1384 37.1952C55.157 35.5118 56.1859 33.2607 56.4932 32.0432C56.5507 31.8154 56.6416 31.5926 56.6952 31.5481C56.8029 31.4588 58.3318 31.2976 58.6644 31.3405C58.7801 31.3555 58.4698 31.3972 57.9749 31.4331C56.7775 31.5202 56.7755 31.5212 56.6089 32.1183C56.3859 32.9175 55.7443 34.4996 55.2471 35.4763C52.4197 41.0309 48.3156 44.5663 43.2252 45.8325C42.924 45.9074 42.3958 46.0552 42.0515 46.161C41.3599 46.3734 40.1076 46.6037 38.9501 46.7314C38.5354 46.7771 37.9005 46.8847 37.5392 46.9706C36.9968 47.0994 35.7722 47.2708 35.2831 47.2864C34.7756 47.3025 36.6322 47.7737 38.0476 47.988C38.5713 48.0673 38.859 48.1325 38.6869 48.1328C38.5147 48.1331 37.9973 48.0671 37.5371 47.986ZM17.873 47.4114C13.2649 45.8805 9.48298 42.7126 6.9709 38.2793C5.67483 35.992 3.87727 31.9487 4.00661 31.6117C4.05744 31.4792 4.62012 31.364 4.93035 31.4225C5.06636 31.4481 5.03988 31.461 4.83501 31.4687C3.92116 31.503 3.92012 31.5072 4.48465 32.9012C7.78973 41.0626 11.7659 45.3227 17.9904 47.3712C18.4853 47.5341 18.8374 47.6683 18.7729 47.6694C18.7083 47.6705 18.3034 47.5544 17.873 47.4114ZM18.1078 34.1349C17.3761 33.7523 16.4959 33.3277 16.1516 33.1913C15.8073 33.0549 15.4681 32.8868 15.3978 32.8177C15.1071 32.5322 14.4528 30.1024 14.3146 28.7955C14.2682 28.3565 14.2132 27.8741 14.1923 27.7234C14.1714 27.5728 14.1227 25.7066 14.0839 23.5763C13.9984 18.8771 13.8064 16.8851 13.2158 14.5722C12.9948 13.7065 13.0079 13.6993 14.1333 14.0695C15.8344 14.6291 18.3784 15.9975 20.182 17.3232C21.3391 18.1737 21.2754 18.0684 21.1967 18.9988L21.1306 19.7813L21.1573 18.9767L21.1841 18.172L20.4087 17.5848C18.5605 16.1852 15.9293 14.7402 14.166 14.1566C13.1512 13.8207 13.1013 13.8354 13.2582 14.4229C13.5754 15.6104 13.8622 17.4464 14.0036 19.1945C14.0541 19.8185 14.1066 20.3694 14.1203 20.4187C14.1423 20.4984 14.95 20.9849 15.9559 21.5244C16.8128 21.984 18.2205 23.0775 19.7257 24.4528C20.1422 24.8334 20.5026 25.1129 20.5266 25.0741C20.5911 24.9697 20.8741 22.5559 20.9958 21.0724C21.054 20.3623 21.1057 19.9574 21.1106 20.1725C21.1265 20.8593 20.7326 24.732 20.6033 25.1608C20.5355 25.3857 20.4283 25.3263 19.7563 24.6913C18.7991 23.7868 17.8998 23.0428 16.8949 22.3238L15.9951 21.68L15.9714 22.8433C15.8957 26.5678 17.1758 31.2336 19.0468 34.0531C19.2865 34.4144 19.4726 34.7371 19.4603 34.7702C19.448 34.8034 18.8394 34.5175 18.1078 34.1349ZM44.9541 34.1202C46.6124 31.6772 47.7756 27.8884 48.047 24.0458C48.1271 22.9127 48.1124 21.8255 48.0159 21.729C47.9177 21.6308 45.6617 23.3734 44.3642 24.5497C43.9578 24.9181 43.5821 25.2195 43.5293 25.2195C43.3608 25.2195 43.1918 23.9574 42.9072 20.5735C42.6777 17.8452 42.568 18.2384 43.8155 17.3174C45.7253 15.9075 48.3449 14.5272 50.196 13.9555C50.8697 13.7474 50.9609 13.7494 50.9122 13.9714C50.891 14.0683 50.7654 14.6933 50.6331 15.3603C50.3045 17.0174 50.3267 16.9223 50.3157 16.7174C50.3075 16.5655 50.7042 14.4839 50.824 14.0497C50.8836 13.8337 50.8466 13.8328 50.196 14.0337C48.8795 14.4403 46.2979 15.6992 45.0263 16.5547C44.2112 17.103 42.8959 18.0771 42.8329 18.179C42.7228 18.3571 43.366 24.8676 43.5088 25.0207C43.5521 25.0672 43.75 24.9308 44.028 24.663C45.6231 23.126 47.4011 21.8021 48.8982 21.0367C49.3931 20.7837 49.8175 20.5476 49.8414 20.5121C49.8653 20.4766 49.9299 19.9103 49.9851 19.2537C50.0403 18.5971 50.1336 17.7958 50.1924 17.473C50.3138 16.8074 50.2953 17.0553 50.099 18.725C50.0251 19.3531 49.9605 21.075 49.9185 23.5372C49.8711 26.31 49.8179 27.6312 49.7262 28.3103C49.3917 30.7879 48.8173 32.8051 48.4104 32.9315C48.0517 33.0429 46.0449 34.0083 45.3967 34.3813C44.4871 34.9047 44.4403 34.8771 44.9541 34.1202ZM27.6043 22.7356C27.2342 22.2727 26.5042 21.4461 25.982 20.8988C25.4599 20.3514 25.0327 19.889 25.0327 19.8713C25.0327 19.7748 25.6404 18.1802 25.9467 17.473C27.1874 14.6087 29.522 10.7166 31.2193 8.68321C31.936 7.82449 31.9431 7.82153 32.3222 8.22024C34.4219 10.4285 37.7878 16.2342 38.8086 19.4082L38.9906 19.974L38.5052 20.4133C38.003 20.8678 36.9796 22.0178 36.1916 23.0133C35.9427 23.3277 35.7001 23.5719 35.6525 23.556C35.6049 23.5401 35.4543 23.0717 35.3178 22.515C34.6479 19.7822 33.5306 17.0476 32.4627 15.527C32.0037 14.8734 32.0479 14.8657 31.5016 15.6955C30.3728 17.41 29.3324 19.8993 28.7165 22.3591C28.5555 23.0022 28.3908 23.5394 28.3505 23.5528C28.3102 23.5662 27.9744 23.1985 27.6043 22.7356ZM28.3971 22.9699C28.8793 20.5351 30.2676 17.1494 31.4934 15.419C32.0198 14.6758 32.052 14.6747 32.5486 15.3799C33.6763 16.9815 34.9805 20.1547 35.5234 22.6178C35.7282 23.5469 35.7118 23.5344 36.0794 23.0421C36.5514 22.4099 37.8126 20.9852 38.3773 20.4464L38.9103 19.9378L38.651 19.1945C37.8301 16.8407 36.0252 13.4007 34.2916 10.8854C33.704 10.0329 32.2205 8.13415 32.0688 8.04038C31.6636 7.78999 28.473 12.4747 26.8777 15.6622C26.1891 17.0379 25.1109 19.601 25.1109 19.862C25.1109 19.8745 25.4503 20.2313 25.865 20.6547C26.6434 21.4492 27.7415 22.7196 28.0348 23.1645C28.261 23.5079 28.294 23.4902 28.3971 22.9699Z" fill="#176B8B"/>
<path d="M31.7096 55.8772C31.6665 55.8212 31.5877 55.4802 31.5345 55.1194C31.2033 52.8719 29.7647 50.7656 27.8435 49.7149C27.3825 49.4628 27.3842 49.4609 28.1874 49.3258C29.3402 49.1318 30.9114 48.5064 31.6365 47.9529L31.9969 47.6779L32.3686 47.9637C33.182 48.5894 34.8847 49.2229 36.1327 49.3641C36.7422 49.4331 36.7383 49.4448 35.9656 49.8678C34.2157 50.8257 32.8824 52.8516 32.4741 55.173L32.3407 55.9319L32.0643 55.9555C31.904 55.9691 31.755 55.9362 31.7096 55.8772ZM39.5086 48.1421C38.4459 48.0722 37.3518 47.9029 36.2343 47.6353C35.4385 47.4448 35.0292 47.2947 35.2833 47.2866C35.7724 47.271 36.9969 47.0996 37.5394 46.9708C37.9007 46.885 38.5356 46.7774 38.9503 46.7316C40.1078 46.6039 41.36 46.3736 42.0517 46.1612C42.396 46.0555 42.9241 45.9077 43.2254 45.8327C48.3158 44.5666 52.4199 41.0311 55.2473 35.4766C55.7445 34.4999 56.3861 32.9178 56.6091 32.1186C56.7195 31.723 56.7884 31.6067 56.9504 31.5423C57.225 31.4331 59.522 31.433 59.7886 31.5421L59.998 31.6278L59.5062 32.8252C57.4445 37.8459 56.0854 40.1215 53.6351 42.6554C50.5906 45.8039 46.3498 47.82 42.0908 48.1439C40.949 48.2307 40.8564 48.2306 39.5086 48.1421ZM20.8075 48.0308C16.8033 47.4479 12.6924 45.2447 9.9154 42.1935C8.36028 40.4847 7.30495 38.8969 6.01765 36.3288C5.22291 34.7434 4.0625 32.0039 4.0625 31.713C4.0625 31.5104 4.56119 31.4363 5.78395 31.4571C7.23478 31.4818 7.1517 31.4307 7.54103 32.539C9.88563 39.2133 14.8456 44.3069 20.338 45.6808C20.7899 45.7938 21.2652 45.9232 21.3943 45.9684C22.0251 46.1888 23.2512 46.4453 24.5242 46.6233C25.2989 46.7316 26.2496 46.889 26.6369 46.9732C27.0242 47.0574 27.57 47.1466 27.8498 47.1716C28.1295 47.1966 28.4464 47.2355 28.554 47.258L28.7496 47.2991L28.554 47.4007C28.3255 47.5195 27.3102 47.7766 26.3631 47.9554C25.4289 48.1318 21.8361 48.1806 20.8075 48.0308ZM19.9711 24.6726C18.6421 23.4181 16.8138 21.9847 15.9561 21.5247C14.9502 20.9852 14.1425 20.4987 14.1204 20.419C14.1068 20.3697 14.0543 19.8187 14.0038 19.1947C13.8624 17.4467 13.5756 15.6106 13.2584 14.4232C13.1015 13.8356 13.1514 13.821 14.1662 14.1569C15.9326 14.7415 18.5605 16.1853 20.4164 17.5908L21.1992 18.1836L21.1584 18.7087C21.1359 18.9975 21.0644 19.9557 20.9995 20.8379C20.8662 22.6481 20.596 24.9941 20.5114 25.0756C20.4806 25.1053 20.2375 24.924 19.9711 24.6726ZM43.4615 24.9655C43.3282 24.569 42.7491 18.3152 42.8331 18.1793C42.896 18.0774 44.2114 17.1033 45.0264 16.555C46.2981 15.6995 48.8797 14.4406 50.1962 14.034C50.8466 13.8331 50.8837 13.834 50.8246 14.0499C50.5394 15.0925 50.1127 17.7295 49.9921 19.1947C49.9443 19.7757 49.8907 20.3215 49.873 20.4076C49.8506 20.5167 49.562 20.705 48.9197 21.0297C47.4459 21.7748 44.9269 23.6656 43.8182 24.8591C43.6089 25.0843 43.5112 25.1135 43.4615 24.9655ZM28.0349 23.1648C27.7417 22.7198 26.6435 21.4495 25.8652 20.6549C25.4504 20.2315 25.1111 19.8748 25.1111 19.8622C25.1111 19.6012 26.1893 17.0382 26.8778 15.6625C28.4731 12.4749 31.6638 7.79025 32.069 8.04064C32.2207 8.13441 33.7042 10.0332 34.2917 10.8856C36.0254 13.4009 37.8303 16.8409 38.6512 19.1947L38.9105 19.9381L38.3774 20.4467C37.8128 20.9854 36.5516 22.4101 36.0796 23.0423C35.712 23.5347 35.7284 23.5472 35.5236 22.618C34.9807 20.155 33.6765 16.9817 32.5487 15.3802C32.0522 14.6749 32.02 14.6761 31.4936 15.4193C30.2678 17.1497 28.8795 20.5353 28.3973 22.9702C28.2942 23.4904 28.2612 23.5082 28.0349 23.1648Z" fill="#022F46"/>
</svg>
