<svg width="358" height="358" viewBox="0 0 358 358" fill="none" xmlns="http://www.w3.org/2000/svg">
<path fill-rule="evenodd" clip-rule="evenodd" d="M25.9064 300.304C25.4056 299.803 24.8967 299.081 24.7755 298.699C24.4122 297.554 24.9242 295.784 25.8783 294.887L26.7747 294.045L39.8573 293.941L52.9399 293.838V285.492V277.146L48.6279 277.03C44.5391 276.92 44.2293 276.86 42.6412 275.865C40.672 274.632 39.0321 272.495 38.5891 270.585C38.4152 269.836 38.2635 265.604 38.252 261.182L38.2309 253.141L36.4883 250.868C35.3247 249.351 34.5004 247.798 34.0074 246.195C31.9602 239.54 35.6803 232.124 42.4517 229.363C43.5488 228.915 45.3475 228.66 48.395 228.52L52.7651 228.318L52.9399 201.748C53.111 175.75 53.1302 175.151 53.8318 173.954C54.2262 173.281 55.2489 172.337 56.1043 171.856C57.6549 170.985 57.6882 170.982 66.9495 170.982H76.2393L77.6576 171.921C78.5123 172.486 79.3706 173.468 79.8175 174.391C80.553 175.91 80.5591 176.137 80.5591 202.208V228.493H84.4048H88.2505V194.911C88.2505 171.864 88.3699 160.854 88.631 159.817C89.121 157.871 90.7917 155.857 92.5959 155.038C93.8003 154.491 94.9394 154.39 100.008 154.384C105.984 154.376 106.005 154.373 109.428 153.134C113.933 151.503 120.884 149.713 126.533 148.729C130.22 148.086 132.398 147.935 138.07 147.929C142.116 147.925 146.388 148.118 148.208 148.387C158.726 149.941 167.723 152.639 175.391 156.538L179.499 158.627L183.606 156.541C191.114 152.729 199.052 150.285 209.009 148.72C214.794 147.811 226.656 147.628 231.416 148.375C239.846 149.698 244.069 150.739 250.163 152.999L253.877 154.376L259.952 154.378C263.293 154.379 266.584 154.535 267.266 154.724C267.948 154.913 269.001 155.581 269.608 156.208C271.97 158.649 271.795 152.995 271.795 226.909V293.87H274.936H278.077L278.17 262.55L278.263 231.229L279.28 230.355C280.098 229.651 280.593 229.504 281.815 229.601L283.332 229.722V205.824C283.332 178.919 283.241 179.918 285.788 179.154C286.938 178.81 287.323 178.856 288.656 179.502C290.158 180.229 290.582 180.247 306.116 180.247H322.036L323.219 181.044C325.269 182.426 325.275 182.466 325.28 195.385C325.285 205.271 325.199 207.369 324.755 208.227C323.673 210.32 323.736 210.313 306.074 210.313H289.975V220.102V229.891H294.824H299.672L299.863 228.468C300.132 226.459 301.532 224.52 303.348 223.641C304.765 222.954 305.448 222.899 312.525 222.899C319.601 222.899 320.284 222.954 321.702 223.641C322.625 224.088 323.607 224.946 324.172 225.8L325.111 227.218L325.286 260.59L325.46 293.962L328.374 294.004C331.2 294.044 331.317 294.079 332.307 295.187C333.685 296.73 333.685 298.352 332.307 299.895L331.286 301.037L179.052 301.126L26.817 301.214L25.9064 300.304ZM299.065 283.557V272.893H292.073H285.081V283.557V294.22H292.073H299.065V283.557ZM88.2505 285.479V277.089H84.4048H80.5591V285.479V293.87H84.4048H88.2505V285.479ZM159.682 290.968C159.506 288.48 159.583 287.824 160.223 286.378C160.633 285.45 160.969 284.639 160.969 284.576C160.969 284.377 155.447 282.706 152.998 282.165C141.376 279.594 128.64 279.872 111.199 283.077C105.313 284.159 105.303 284.159 104.382 283.477C102.904 282.384 102.427 281.092 102.907 279.488C103.13 278.744 103.669 277.901 104.105 277.616C105.668 276.592 118.733 274.318 127.407 273.56C133.238 273.051 144.505 273.337 149.078 274.11C155.877 275.26 160.906 276.806 165.233 279.074C167.475 280.25 167.648 280.285 169.358 279.919C170.339 279.708 172.314 279.536 173.747 279.536C175.18 279.536 176.35 279.418 176.348 279.274C176.34 278.708 173.26 275.744 171.056 274.181C163.232 268.634 151.431 265.435 138.769 265.428C129.648 265.423 121.79 266.917 111.929 270.53C107.362 272.203 106.978 272.288 106.128 271.81C105.627 271.529 105.02 270.911 104.78 270.436C104.436 269.756 104.342 258.078 104.338 215.645L104.333 161.718H99.9624H95.5923V227.794V293.87H127.739H159.886L159.682 290.968ZM190.844 293.375C193.07 292.445 193.535 289.673 191.762 287.9L190.74 286.878H179.72H168.7L167.719 287.722C165.919 289.269 166.56 292.608 168.835 293.539C169.22 293.697 174.063 293.836 179.597 293.848C187.523 293.865 189.911 293.765 190.844 293.375ZM264.803 227.794V161.718H260.262H255.72L255.629 216.112L255.539 270.507L254.517 271.386C253.331 272.406 252.027 272.34 249.189 271.118C242.773 268.354 233.817 266.194 225.997 265.526C212.603 264.381 197.432 267.563 189.05 273.275C187.196 274.538 182.645 278.78 182.645 279.244C182.645 279.404 183.786 279.545 185.18 279.557C186.574 279.568 188.501 279.712 189.462 279.877C191.124 280.162 191.384 280.091 194.707 278.456C201.082 275.317 209.45 273.677 220.758 273.351C230.213 273.078 235.34 273.528 247.672 275.717C255.248 277.061 256.887 277.805 257.316 280.092C257.588 281.542 256.667 283.192 255.259 283.775C254.397 284.132 253.3 284.025 248.246 283.092C229.066 279.553 214.811 279.574 201.822 283.16C197.884 284.248 197.862 284.264 198.728 285.481C199.725 286.881 200.235 289.912 199.795 291.821C199.602 292.659 199.44 293.464 199.435 293.608C199.43 293.752 214.136 293.87 232.115 293.87H264.803V227.794ZM318.643 285.13V276.39H312.175H305.707V285.13V293.87H312.175H318.643V285.13ZM73.5669 285.305V277.089H66.7495H59.9321V285.305V293.52H66.7495H73.5669V285.305ZM88.2505 263.454V256.811H66.7495H45.2485V263.454V270.097H66.7495H88.2505V263.454ZM318.643 261.182V252.266H312.175H305.707V261.182V270.097H312.175H318.643V261.182ZM176.352 216.785V164.871L173.212 163.294C163.566 158.45 154.343 155.952 142.786 155.054C133.791 154.356 123.541 155.764 114.513 158.939C112.901 159.506 111.524 159.97 111.454 159.97C111.383 159.97 111.325 183.175 111.325 211.537C111.325 239.899 111.364 263.103 111.412 263.102C111.46 263.101 112.601 262.727 113.947 262.271C126.058 258.169 140.893 257.325 154.676 259.954C161.068 261.173 169.761 264.581 174.254 267.628C175.12 268.215 175.946 268.696 176.09 268.697C176.234 268.697 176.352 245.337 176.352 216.785ZM128.352 175.494C126.025 174.232 126.255 170.116 128.71 169.099C129.428 168.801 134.323 168.717 146.695 168.787C162.87 168.88 163.729 168.917 164.432 169.553C164.838 169.921 165.345 170.805 165.559 171.517C166.067 173.215 165.43 174.607 163.766 175.439C162.651 175.996 161.063 176.049 145.936 176.037C131.777 176.026 129.185 175.946 128.352 175.494ZM185.183 267.32C187.741 265.593 192.756 263.254 196.775 261.912C211.386 257.033 230.412 257.107 245.183 262.101C246.817 262.653 248.281 263.104 248.437 263.104C248.593 263.104 248.721 239.918 248.721 211.579V160.055L244.918 158.791C236.513 155.999 230.101 154.956 221.277 154.946C212.515 154.936 204.506 156.214 196.28 158.935C191.876 160.391 184.088 163.886 183.626 164.612C183.346 165.053 183.222 268.349 183.502 268.349C183.588 268.349 184.345 267.886 185.183 267.32ZM195.371 207.377C194.047 206.052 193.828 204.671 194.68 203.022C195.603 201.239 195.763 201.224 213.925 201.224H230.837L231.913 202.299C233.155 203.542 233.368 205.421 232.419 206.776C231.196 208.522 230.726 208.565 213.037 208.565H196.559L195.371 207.377ZM196.064 192.636C193.937 191.573 193.49 188.576 195.204 186.863L196.226 185.841H213.76H231.294L232.316 186.863C233.742 188.288 233.743 190.271 232.319 191.866L231.299 193.008L214.226 193.094C199.354 193.169 197.013 193.11 196.064 192.636ZM195.404 176.956C193.75 175.302 193.885 172.72 195.696 171.368C196.658 170.649 197.047 170.63 212.824 170.529C221.703 170.472 229.497 170.522 230.142 170.639C232.565 171.081 233.698 173.667 232.491 176.001C231.568 177.785 231.411 177.8 213.203 177.8H196.248L195.404 176.956ZM299.065 260.657V254.714H292.073H285.081V260.657V266.6H292.073H299.065V260.657ZM88.2505 242.642V235.465L66.6363 235.562L45.022 235.66L43.6051 236.598C41.4889 237.999 40.5407 239.76 40.5342 242.302C40.5274 244.93 41.4495 246.816 43.4235 248.21C44.2122 248.767 45.4567 249.339 46.1892 249.481C46.9217 249.623 56.6851 249.757 67.8857 249.779L88.2505 249.819V242.642ZM299.065 242.477V236.884H292.073H285.081V242.477V248.071H292.073H299.065V242.477ZM318.293 237.932V230.241H312.175H306.057V237.932V245.624H312.175H318.293V237.932ZM73.9165 203.566C73.9165 184.644 73.8154 178.538 73.497 178.219C72.9062 177.628 60.5929 177.628 60.002 178.219C59.6836 178.538 59.5825 184.644 59.5825 203.566V228.493H66.7495H73.9165V203.566ZM318.293 195.455V187.239H304.309H290.325V195.455V203.671H304.309H318.293V195.455ZM295.744 161.185C295.167 160.876 294.335 160.286 293.896 159.874C292.903 158.943 290.775 154.743 290.468 153.107C290.31 152.266 290.089 151.944 289.756 152.072C289.49 152.174 287.988 152.518 286.418 152.836C280.127 154.111 275.973 152.376 276.507 148.698C276.925 145.821 278.114 143.517 280.367 141.22L282.569 138.974L280.743 137.148C278.607 135.012 276.763 131.504 276.473 129.026C276.107 125.897 277.899 124.665 282.822 124.661C284.966 124.659 287.845 125.171 289.662 125.876C290.118 126.053 290.263 125.759 290.434 124.313C290.723 121.875 292.556 118.305 294.385 116.619C296.144 114.997 297.796 114.768 299.636 115.89C301.762 117.186 304.24 121.532 304.581 124.563C304.738 125.951 304.833 126.089 305.494 125.879C308.97 124.772 309.952 124.626 313.141 124.738C316.317 124.851 316.621 124.926 317.511 125.816C318.298 126.602 318.457 127.052 318.407 128.343C318.282 131.584 316.399 135.185 313.467 137.791L312.312 138.818L314.283 140.851C316.647 143.289 318.284 146.549 318.393 149.033C318.476 150.96 318.086 151.647 316.396 152.547C314.724 153.437 309.241 153.318 306.756 152.338C304.443 151.425 304.659 151.432 304.659 152.274C304.659 154.276 301.855 159.429 300.078 160.694C298.693 161.68 297.019 161.87 295.744 161.185ZM298.687 154.766C300.286 152.52 300.445 148.392 299.021 146.089C298.083 144.572 296.937 144.554 295.879 146.041C294.419 148.091 294.617 151.783 296.339 154.638C297.184 156.039 297.758 156.07 298.687 154.766ZM287.515 147.85C289.228 147.153 289.956 146.412 290.895 144.412C291.932 142.205 291.925 141.994 290.806 141.484C290.067 141.147 289.514 141.175 287.963 141.626C285.43 142.362 282.284 145.352 282.284 147.023C282.284 148.797 284.378 149.129 287.515 147.85ZM312.633 147.136C312.725 146.184 312.46 145.727 310.885 144.121C308.589 141.78 305.997 140.739 304.408 141.519C303.222 142.101 303.243 143.025 304.487 145.149C305.655 147.142 308.315 148.499 310.777 148.358C312.464 148.261 312.529 148.219 312.633 147.136ZM299.065 140.042C300.526 138.581 299.604 135.847 297.651 135.847C295.497 135.847 294.469 137.971 295.708 139.862C296.425 140.956 298.063 141.044 299.065 140.042ZM290.954 135.777C292.355 134.376 290.279 131.028 287.324 129.922C283.816 128.61 281.603 129.198 282.319 131.252C282.773 132.554 285.179 135.034 286.586 135.65C287.984 136.262 290.399 136.332 290.954 135.777ZM308.022 135.677C310.049 134.83 311.881 133.158 312.513 131.579C313.07 130.186 313.069 130.083 312.484 129.656C311.671 129.061 310.777 129.086 308.48 129.767C305.964 130.514 304.946 131.289 303.93 133.23L303.085 134.844L303.911 135.52C304.898 136.329 306.33 136.384 308.022 135.677ZM298.347 131.312C299.103 130.907 300.114 128.534 300.114 127.163C300.114 125.682 299.159 122.775 298.324 121.714L297.582 120.771L296.768 121.535C294.927 123.265 294.31 127.785 295.576 130.267C296.307 131.7 297.078 131.991 298.347 131.312ZM62.4225 157.503C59.4348 156.845 56.7856 153.624 56.7856 150.65C56.7856 149.137 56.781 149.132 55.5152 149.132C52.2764 149.132 49.6969 147.461 48.1951 144.392C47.3937 142.754 47.2792 142.157 47.4356 140.432C47.8173 136.222 51.257 133.05 55.4394 133.05H56.7856V131.465C56.7856 126.447 61.8022 123.133 66.8567 124.811C69.8942 125.82 72.1532 129.106 71.7056 131.864L71.5132 133.05L73.1519 133.057C79.025 133.085 82.7925 139.717 79.8498 144.849C78.3399 147.481 74.8596 149.477 72.5742 149.021C71.6714 148.841 71.6424 148.887 71.5902 150.584C71.4584 154.871 66.7174 158.449 62.4225 157.503ZM65.5053 152.464C66.4776 151.961 67.2739 150.421 67.2739 149.045C67.2739 148.138 65.0882 145.985 64.1679 145.985C63.7671 145.985 62.929 146.441 62.3054 146.998C61.3672 147.837 61.1716 148.265 61.1716 149.481C61.1716 150.698 61.3672 151.126 62.3054 151.964C63.5908 153.113 64.0971 153.192 65.5053 152.464ZM57.5117 143.215C58.7484 141.979 58.8476 140.535 57.7886 139.189C56.2302 137.208 53.4599 137.323 52.3785 139.414C50.6356 142.785 54.8337 145.893 57.5117 143.215ZM75.3418 143.215C76.4783 142.079 76.6408 140.893 75.8656 139.393C75.3703 138.436 74.0271 137.595 72.9926 137.595C72.0424 137.595 70.4633 138.745 70.0528 139.736C68.6854 143.037 72.8081 145.749 75.3418 143.215ZM66.5438 134.583C68.2351 132.433 66.782 129.204 64.123 129.204C60.8748 129.204 60.0476 133.239 62.8214 135.552C63.8486 136.409 64.0095 136.444 64.8748 135.996C65.3912 135.729 66.1423 135.093 66.5438 134.583ZM98.8312 142.265C97.1958 141.459 96.9949 140.271 96.9927 131.389L96.9906 123.61H95.5809C93.8127 123.61 91.9188 122.838 91.4249 121.915C91.2099 121.513 91.0472 119.25 91.0472 116.662V112.114L88.9433 110.993C84.5976 108.677 80.2628 103.684 78.0935 98.4968C74.5285 89.972 77.1994 78.787 84.2859 72.5649C93.7492 64.2561 107.442 64.2748 116.366 72.6088C119.476 75.5132 121.449 78.4733 122.748 82.1815C123.647 84.7479 123.726 85.3818 123.708 89.8729C123.691 94.2327 123.589 95.0476 122.775 97.3318C120.906 102.581 117.176 107.24 112.301 110.415L109.577 112.19L109.575 116.414C109.574 120.019 109.471 120.806 108.876 121.784C108.06 123.122 106.98 123.61 104.834 123.61H103.284V132.024C103.284 137.382 103.147 140.694 102.906 141.143C102.698 141.532 101.995 142.072 101.344 142.344C99.9296 142.935 100.207 142.944 98.8312 142.265ZM102.934 115.569V114.52H100.312H97.6899V115.569V116.618H100.312H102.934V115.569ZM102.063 106.392C102.168 105.959 102.816 103.403 103.502 100.711C106.25 89.9399 106.269 89.4546 104.04 87.2261C101.767 84.9524 98.4316 85.0417 96.3326 87.4323C94.5716 89.438 94.6017 90.6393 96.6221 98.9628C97.6023 103.001 98.4746 106.501 98.5605 106.742C98.6542 107.004 99.3487 107.179 100.294 107.179C101.641 107.179 101.9 107.063 102.063 106.392ZM92.5834 103.143C92.2901 101.998 91.5528 99.4872 90.9447 97.5643C90.0309 94.6742 89.8381 93.4926 89.8325 90.747C89.8249 87.0448 90.3837 85.5068 92.5413 83.2919C97.1074 78.6048 104.029 78.6655 108.334 83.4304C111.552 86.9925 111.848 90.3934 109.578 97.7391C108.776 100.335 107.976 102.93 107.8 103.505C107.226 105.378 107.407 105.514 109.01 104.411C111.279 102.85 114.21 99.7635 115.266 97.8229C120.302 88.5695 115.308 76.8315 105.056 73.8236C102.904 73.1925 98.6361 73.1059 96.2915 73.6459C89.0085 75.3233 83.3748 82.3988 83.3601 89.8869C83.349 95.5012 86.2956 100.902 91.1344 104.138C92.1441 104.813 93.0031 105.334 93.0434 105.296C93.0836 105.257 92.8766 104.289 92.5834 103.143ZM125.474 139.999C125.084 139.81 124.455 139.192 124.076 138.626C123.654 137.997 123.08 137.596 122.6 137.596C121.6 137.594 120.493 136.497 120.226 135.244C120.112 134.71 119.793 133.856 119.518 133.345C118.807 132.031 118.896 130.355 119.749 128.975C120.471 127.807 121.999 126.757 122.977 126.757C123.251 126.757 123.674 126.278 123.916 125.694C125.075 122.898 128.682 122.877 129.834 125.66C130.146 126.412 130.57 126.748 131.408 126.905C132.75 127.157 133.465 127.859 134.219 129.663C134.736 130.901 134.718 131.125 133.878 133.879C133.169 136.203 132.813 136.869 132.105 137.191C131.618 137.413 131.063 137.595 130.872 137.595C130.681 137.595 129.927 138.224 129.195 138.993C127.829 140.429 126.883 140.685 125.474 139.999ZM128.256 133.2C129.471 131.984 128.558 129.903 126.808 129.903C125.18 129.903 124.405 131.858 125.538 133.11C126.248 133.894 127.519 133.936 128.256 133.2ZM237.489 138.833C236.983 138.548 236.316 137.682 236.006 136.906C235.595 135.879 235.24 135.497 234.699 135.497C234.29 135.497 233.345 134.886 232.598 134.14C231.515 133.056 231.241 132.523 231.241 131.5C231.241 129.303 233.139 126.757 234.777 126.757C235.179 126.757 235.695 126.221 236.149 125.332C237.606 122.475 240.286 122.375 242.056 125.11C242.541 125.861 243.293 126.517 243.804 126.637C245.586 127.057 247.323 129.4 247.323 131.384C247.323 132.604 245.701 134.733 244.252 135.415C243.542 135.749 242.768 136.426 242.532 136.918C241.555 138.957 239.26 139.828 237.489 138.833ZM240.593 132.603C241.266 132.082 241.11 130.434 240.32 129.719C239.359 128.849 237.853 129.367 237.372 130.732C237.066 131.602 237.142 131.826 237.982 132.549C238.92 133.356 239.602 133.37 240.593 132.603ZM159.961 133.208C158.01 132.361 154.64 129.778 152.307 127.342C148.993 123.88 148.339 121.751 149.988 119.791C151.365 118.154 153.032 118.281 155.386 120.202C157.819 122.186 158.42 122.484 160.27 122.62L161.843 122.736V117.863V112.989L159.882 112.406C158.803 112.086 157.207 111.334 156.336 110.734C154.36 109.375 150.996 105.703 150.064 103.89C148.808 101.447 149.253 99.2601 151.212 98.2471C152.764 97.4446 154.21 98.053 156.183 100.338C157.573 101.948 158.075 102.28 159.616 102.611C160.609 102.824 161.516 102.903 161.632 102.788C161.748 102.672 161.895 100.569 161.957 98.1136L162.072 93.6497L160.455 93.1972C158.092 92.5354 155.155 90.6549 152.639 88.1924C148.927 84.5592 148.109 81.8774 150.104 79.8822C151.354 78.6326 152.919 78.5375 154.669 79.6047C155.738 80.2559 156.25 80.3241 158.865 80.163C167.171 79.6514 173.575 76.8723 178.887 71.4741L181.247 69.0758L181.255 66.5388C181.279 59.6692 181.638 58.0979 183.397 57.1563C184.452 56.5916 186.64 56.6874 187.639 57.342C189.007 58.2384 189.288 59.3657 189.288 63.9658C189.288 68.1467 189.316 68.3058 190.291 69.6519C191.383 71.1599 194.095 73.553 196.724 75.3295C200.903 78.1535 206.131 79.812 211.926 80.1532C215.052 80.3372 215.599 80.285 216.195 79.7457C216.571 79.4055 217.585 79.0475 218.449 78.9501C219.85 78.7922 220.135 78.8879 221.085 79.8386C223.059 81.812 222.427 84.2573 219.032 87.78C216.717 90.1826 214.686 91.61 212.073 92.6715C209.727 93.6246 209.667 93.7798 209.606 99.0502C209.566 102.546 209.584 102.634 210.352 102.632C212.108 102.627 213.673 101.88 215.131 100.351C215.965 99.4753 217.063 98.5445 217.57 98.2821C219.627 97.2185 221.803 98.8554 221.8 101.464C221.796 104.563 216.064 110.699 211.711 112.265C210.553 112.681 209.899 113.137 209.77 113.619C209.476 114.712 209.526 122.496 209.827 122.679C209.971 122.767 210.944 122.703 211.988 122.536C213.5 122.296 214.175 121.956 215.309 120.865C217.889 118.384 219.469 118.078 221.129 119.738C222.357 120.966 222.456 122.34 221.459 124.295C220.461 126.251 215.645 130.908 213.039 132.438L210.804 133.749L185.974 133.735C164.925 133.724 160.964 133.643 159.961 133.208ZM202.922 120.813V114.52H185.791H168.661V120.813V127.106H185.791H202.922V120.813ZM202.922 101.359V95.1893L200.213 95.4351C191.057 96.2656 178.013 96.273 170.846 95.4519L168.661 95.2016V101.365V107.528H185.791H202.922V101.359ZM188.949 88.5619C188.955 88.3216 188.129 85.4129 187.113 82.0982L185.267 76.0714L184.524 78.7769C184.116 80.2649 183.29 82.9769 182.689 84.8036C182.088 86.6303 181.596 88.3216 181.596 88.5619C181.596 88.8838 182.563 88.9989 185.267 88.9989C187.965 88.9989 188.941 88.8831 188.949 88.5619ZM175.274 86.4643C176.399 83.9473 176.756 82.7059 176.356 82.7059C176.201 82.7059 174.918 83.2541 173.504 83.924C170.948 85.1349 166.228 86.5265 164.497 86.5793L163.591 86.6068L164.564 86.9617C165.758 87.3974 171.966 88.5712 173.315 88.6164C174.194 88.6458 174.402 88.4175 175.274 86.4643ZM201.349 87.9441C202.887 87.745 204.933 87.3774 205.894 87.1274L207.642 86.6727L205.719 86.4151C203.043 86.0566 199.017 84.6595 196.018 83.0478C194.623 82.2989 193.483 81.7524 193.483 81.8335C193.483 82.0223 194.605 84.8394 195.543 87.0055C196.234 88.6024 196.324 88.6739 197.411 88.4946C198.039 88.391 199.811 88.1433 201.349 87.9441ZM261.345 110.996C255.525 109.853 249.54 104.644 246.916 98.4384C245.955 96.1655 245.787 95.3042 245.655 91.9706C245.424 86.1709 246.693 82.1331 250.06 77.9535C254.091 72.9492 259.469 70.4652 266.252 70.4738C271.202 70.4801 274.367 71.5206 278.347 74.451C286.239 80.2608 288.671 91.0007 284.166 100.152C282.325 103.893 278.84 107.32 274.942 109.226C273.307 110.025 271.123 110.835 270.087 111.026C267.865 111.436 263.511 111.421 261.345 110.996ZM269.558 104.248C272.988 103.335 276.703 100.426 277.257 98.2196C277.669 96.5747 276.165 93.3802 274.328 92.0016C273.385 91.2942 270.644 90.8711 269.258 91.2189C268.803 91.3331 267.501 92.2403 266.364 93.2348C263.772 95.5031 262.605 95.9911 259.77 95.9911C257.869 95.9911 257.141 95.7974 255.159 94.7645C253.865 94.0899 252.747 93.597 252.675 93.6691C252.436 93.9079 253.672 97.143 254.508 98.4677C257.552 103.289 263.942 105.744 269.558 104.248ZM279.443 88.2185C278.361 81.3768 270.462 76.0241 263.501 77.4156C260.983 77.919 258.403 79.1607 256.513 80.778C254.973 82.0962 252.916 85.7396 252.916 87.1493C252.916 89.1981 255.377 91.8764 257.868 92.5395C260.251 93.1736 261.924 92.5634 264.581 90.0917C267.906 86.9988 271.337 86.4457 274.759 88.4512C276.307 89.3582 279.107 92.1887 279.184 92.9242C279.21 93.1689 279.338 92.5898 279.47 91.6373C279.602 90.6849 279.589 89.1464 279.443 88.2185ZM135.304 74.1979C134.699 73.5565 133.796 72.9292 133.297 72.8039C132.798 72.6786 132.017 72.2743 131.561 71.9053C130.784 71.2756 130.733 71.0054 130.73 67.5C130.728 63.9888 130.778 63.7253 131.559 63.0926C132.016 62.7225 132.793 62.3186 133.285 62.195C133.778 62.0713 134.756 61.3654 135.459 60.6262C136.392 59.6461 137.024 59.2821 137.794 59.2821C138.977 59.2821 140.539 60.3473 140.866 61.3768C141.001 61.8034 141.529 62.1388 142.291 62.2817C144.368 62.6714 144.874 63.7261 144.765 67.44C144.714 69.2024 144.48 70.9948 144.247 71.423C143.788 72.2638 142.795 72.9169 141.973 72.9169C141.692 72.9169 140.91 73.4675 140.237 74.1405C138.549 75.829 136.861 75.8486 135.304 74.1979ZM139.234 68.5426C140.057 67.4963 139.876 66.4432 138.746 65.7025C137.283 64.7439 135.473 66.4249 136.124 68.1376C136.694 69.636 138.218 69.8345 139.234 68.5426ZM233.115 73.2449C232.708 73.0941 231.844 72.3106 231.196 71.5036C230.547 70.6967 229.191 69.2137 228.182 68.2081C226.589 66.6218 226.346 66.1978 226.346 65.0063C226.346 63.324 227.039 62.2772 228.729 61.4052C229.438 61.0398 230.604 60.0325 231.321 59.1668C233.49 56.5483 235.823 56.7204 237.756 59.6415C238.31 60.4779 238.949 61.0302 239.363 61.0302C239.741 61.0302 240.586 61.5651 241.24 62.2188C242.164 63.1438 242.428 63.6955 242.428 64.7055C242.428 66.3993 240.186 70.0044 238.932 70.3275C238.451 70.4514 237.586 71.088 237.009 71.7423C235.854 73.0527 234.259 73.668 233.115 73.2449ZM235.993 66.0995C236.523 65.2899 236.523 65.1611 235.993 64.3515C235.609 63.7665 235.099 63.4774 234.449 63.4774C233.235 63.4774 232.639 64.0526 232.639 65.2255C232.639 66.3984 233.235 66.9735 234.449 66.9735C235.099 66.9735 235.609 66.6845 235.993 66.0995Z" fill="black"/>
<path d="M128.709 184.311C126.255 185.328 126.024 189.444 128.352 190.706C129.185 191.158 131.777 191.238 145.936 191.25C161.063 191.262 162.651 191.209 163.765 190.652C165.43 189.82 166.067 188.427 165.558 186.73C165.345 186.017 164.838 185.134 164.431 184.766C163.728 184.13 162.869 184.093 146.694 184C134.322 183.929 129.428 184.014 128.709 184.311Z" fill="black"/>
<path d="M128.709 199.562C126.255 200.579 126.024 204.695 128.352 205.957C129.185 206.408 131.777 206.489 145.936 206.5C161.063 206.512 162.651 206.459 163.765 205.902C165.43 205.07 166.067 203.677 165.558 201.98C165.345 201.268 164.838 200.384 164.431 200.016C163.728 199.38 162.869 199.343 146.694 199.25C134.322 199.18 129.428 199.264 128.709 199.562Z" fill="black"/>
<path d="M128.709 215C126.255 216.017 126.024 220.133 128.352 221.395C129.185 221.847 131.777 221.927 145.936 221.938C161.063 221.95 162.651 221.897 163.765 221.34C165.43 220.509 166.067 219.116 165.558 217.418C165.345 216.706 164.838 215.822 164.431 215.455C163.728 214.818 162.869 214.781 146.694 214.689C134.322 214.618 129.428 214.703 128.709 215Z" fill="black"/>
<path d="M195.204 217.522C193.49 219.236 193.937 222.232 196.064 223.295C197.013 223.769 199.354 223.828 214.226 223.753L231.299 223.667L232.319 222.525C233.743 220.931 233.742 218.947 232.316 217.522L231.295 216.5H213.76H196.226L195.204 217.522Z" fill="black"/>
<path d="M195.204 233.022C193.49 234.736 193.937 237.732 196.064 238.795C197.013 239.269 199.354 239.328 214.226 239.253L231.299 239.167L232.319 238.025C233.743 236.431 233.742 234.447 232.316 233.022L231.295 232H213.76H196.226L195.204 233.022Z" fill="black"/>
<path d="M128.709 230.311C126.255 231.328 126.024 235.444 128.352 236.706C129.185 237.158 131.777 237.238 145.936 237.25C161.063 237.262 162.651 237.209 163.765 236.652C165.43 235.82 166.067 234.427 165.558 232.73C165.345 232.017 164.838 231.134 164.431 230.766C163.728 230.13 162.869 230.093 146.694 230C134.322 229.929 129.428 230.014 128.709 230.311Z" fill="black"/>
</svg>
