<svg width="512" height="512" viewBox="0 0 512 512" fill="none" xmlns="http://www.w3.org/2000/svg">
<path d="M260.966 429.577C271.805 415.367 272.592 401.839 263.887 379.408C260.623 370.997 257.523 364.103 256.998 364.088C256.473 364.073 253.079 370.794 249.456 379.023C242.149 395.62 240.153 406.427 242.874 414.67C245.137 421.529 253.442 434.768 255.48 434.768C256.32 434.768 258.788 432.432 260.966 429.577ZM403.295 387.422C420.243 383.156 438.315 373.923 452.975 362.041C467.153 350.548 469.482 347.212 464.127 346.062C460.72 345.33 429.057 341.581 410.366 339.697C405.181 339.174 394.014 337.626 385.551 336.258L370.164 333.771L363.465 338.581C348.898 349.043 333.777 355.702 319.951 357.747C306.505 359.736 280.68 359.358 275.629 357.098C270.159 354.652 273.106 358.694 281.152 364.676C297.868 377.102 327.567 387.956 352.248 390.658C368.436 392.431 388.429 391.163 403.295 387.422ZM184.887 386.179C199.704 381.92 229.478 367.442 236.74 360.965C241.71 356.532 241.861 356.17 238.311 357.195C231.183 359.255 212.58 360.151 200.438 359.019C185.407 357.617 174.841 353.675 156.539 342.641C143.836 334.983 141.285 334.006 135.591 334.622C106.315 337.786 47.1522 345.783 46.1462 346.712C44.5043 348.229 62.293 364.644 72.9999 371.493C84.3457 378.751 100.137 385.301 113.408 388.253C129.719 391.883 169.011 390.742 184.887 386.179ZM300.377 336.876C306.234 333.844 314.761 327.036 322.892 318.9C331.271 310.517 335.579 307.099 334.866 309.4C332.115 318.277 325.983 327.79 318.5 334.79C314.036 338.965 310.664 342.661 311.005 343.002C312.372 344.369 329.378 338.243 341.23 332.114C364.352 320.158 389.264 291.342 401.779 262.077C409.615 243.756 410.467 239.93 406.714 239.93C398.241 239.93 369.243 253.289 353.8 264.307C343.304 271.795 318.44 296.534 305.655 312.209C301.074 317.826 293.239 326.943 288.245 332.47C283.25 337.996 279.164 343.065 279.164 343.735C279.164 345.709 290.223 342.133 300.377 336.876ZM195.038 337.124C189.385 331.912 178.602 314.248 178.602 310.197C178.602 309.77 183.729 314.522 189.994 320.757C202.78 333.482 220.612 343.634 230.174 343.634H235.757L226.128 333.814C220.832 328.412 211.718 317.983 205.875 310.637C178.129 275.757 143.479 249.781 112.805 240.866L104.359 238.411L105.376 244.769C106.7 253.054 118.275 277.73 126.556 289.924C135.003 302.364 152.134 319.68 163.383 327.148C171.769 332.716 195.985 343.55 200.172 343.608C201.233 343.622 198.923 340.705 195.038 337.124ZM239.074 319.123C229.186 299.47 226.543 286.421 226.534 257.214C226.527 234.939 227.027 229.562 230.078 219.033C234.389 204.16 241.222 190.161 249.715 178.799L256.064 170.307L260.537 175.657C262.996 178.599 268.859 188.785 273.565 198.291C285.176 221.745 287.62 233.702 286.684 262.48C286.018 282.975 285.506 286.061 280.123 301.995C276.912 311.502 273.205 320.932 271.885 322.951C266.907 330.568 271.115 327.577 278.372 318.339C282.527 313.051 295.267 297.894 306.683 284.658L327.438 260.593L330.234 246.199C336.87 212.032 328.012 173.576 305.57 139.12C294.709 122.446 260.982 87.5156 255.742 87.5156C250.815 87.5156 218.165 120.874 208.034 136.259C183.139 174.065 174.456 219.116 184.942 256.064C186.045 259.949 193.22 269.676 205.807 284.347C216.359 296.646 229.08 311.835 234.076 318.101C239.071 324.366 243.414 329.493 243.725 329.493C244.037 329.493 241.944 324.826 239.074 319.123ZM110.179 321.354C119.725 320.335 127.769 319.336 128.054 319.134C128.339 318.932 124.207 313.579 118.872 307.238C113.536 300.898 107.509 292.882 105.477 289.425C98.9415 278.308 89.0639 251.617 86.1952 237.324L83.4067 223.431L73.609 222.962C59.1755 222.272 18.329 230.087 18.332 233.539C18.3344 235.862 25.4439 252.783 30.2608 261.928C40.6638 281.678 62.5624 306.993 78.5695 317.773C87.7304 323.942 86.8643 323.844 110.179 321.354ZM428.907 320.622C442.222 313.775 457.499 299.548 470.843 281.569C478.404 271.38 496.001 238.338 496.001 234.328C496.001 230.812 468.334 224.685 445.788 223.207L430.333 222.195L428.39 231.455C421.395 264.794 408.474 291.986 390.212 311.798C386.58 315.738 384.93 318.542 386.204 318.612C387.394 318.677 394.025 319.653 400.938 320.781C418.382 323.627 423.115 323.6 428.907 320.622ZM375.223 232.21C389.376 225.625 407.027 220.268 420.07 218.599L428.203 217.558L429.32 205.639C430.867 189.123 429.078 158.338 425.696 143.296L422.87 130.726L415.832 131.268C399.398 132.536 367.938 145.457 351.223 157.806C337.958 167.605 337.927 167.673 341.635 179.067C348.531 200.252 350.451 219.04 347.823 239.595L346.56 249.474L354.319 243.899C358.587 240.834 367.993 235.573 375.223 232.21ZM165.192 237.966C162.681 216.485 164.276 200.387 171.127 178.078L174.439 167.294L170.628 164.265C148.282 146.504 126.821 136.89 95.7247 130.708C89.2924 129.429 88.7892 130.622 85.1124 155.866C82.0301 177.029 82.7531 212.455 86.3344 215.745C87.3897 216.715 94.6169 218.729 102.395 220.223C121.037 223.801 137.433 230.28 151.891 239.781C158.372 244.04 164.275 247.584 165.008 247.656C165.741 247.727 165.824 243.367 165.192 237.966Z" fill="#202124"/>
</svg>
