<svg width="512" height="512" viewBox="0 0 512 512" fill="none" xmlns="http://www.w3.org/2000/svg">
<path d="M260.965 429.578C271.804 415.368 272.591 401.84 263.886 379.409C260.622 370.998 257.522 364.104 256.997 364.089C256.472 364.074 253.078 370.795 249.455 379.024C242.148 395.621 240.152 406.428 242.873 414.671C245.136 421.53 253.441 434.769 255.479 434.769C256.319 434.769 258.787 432.433 260.965 429.578ZM403.294 387.423C420.242 383.157 438.314 373.924 452.974 362.042C467.152 350.549 469.481 347.213 464.126 346.063C460.719 345.331 429.056 341.582 410.365 339.698C405.18 339.175 394.013 337.627 385.55 336.259L370.163 333.772L363.464 338.582C348.897 349.044 333.776 355.703 319.95 357.748C306.504 359.737 280.679 359.359 275.628 357.099C270.158 354.653 273.105 358.695 281.151 364.677C297.867 377.103 327.566 387.957 352.247 390.659C368.435 392.432 388.428 391.164 403.294 387.423ZM184.886 386.18C199.703 381.921 229.477 367.443 236.739 360.966C241.709 356.533 241.86 356.171 238.31 357.196C231.182 359.256 212.579 360.152 200.437 359.02C185.406 357.618 174.84 353.676 156.538 342.642C143.835 334.984 141.284 334.007 135.59 334.623C106.314 337.787 47.1517 345.784 46.1457 346.713C44.5038 348.23 62.2925 364.645 72.9994 371.494C84.3452 378.752 100.136 385.302 113.407 388.254C129.718 391.884 169.01 390.743 184.886 386.18ZM300.376 336.877C306.233 333.845 314.76 327.037 322.891 318.901C331.27 310.518 335.578 307.1 334.865 309.401C332.114 318.278 325.982 327.791 318.499 334.791C314.035 338.966 310.663 342.662 311.004 343.003C312.371 344.37 329.377 338.244 341.229 332.115C364.351 320.159 389.263 291.343 401.778 262.078C409.614 243.757 410.466 239.931 406.713 239.931C398.24 239.931 369.242 253.29 353.799 264.308C343.303 271.796 318.439 296.535 305.654 312.21C301.073 317.827 293.238 326.944 288.244 332.471C283.249 337.997 279.163 343.066 279.163 343.736C279.163 345.71 290.222 342.134 300.376 336.877ZM195.037 337.125C189.384 331.913 178.601 314.249 178.601 310.198C178.601 309.771 183.728 314.523 189.993 320.758C202.779 333.483 220.611 343.635 230.173 343.635H235.756L226.127 333.815C220.831 328.413 211.717 317.984 205.874 310.638C178.128 275.758 143.478 249.782 112.804 240.867L104.358 238.412L105.375 244.77C106.699 253.055 118.274 277.731 126.555 289.925C135.002 302.365 152.133 319.681 163.382 327.149C171.768 332.717 195.984 343.551 200.171 343.609C201.232 343.623 198.922 340.706 195.037 337.125ZM239.073 319.124C229.185 299.471 226.542 286.422 226.533 257.215C226.526 234.94 227.026 229.563 230.077 219.034C234.388 204.161 241.221 190.162 249.714 178.8L256.063 170.308L260.536 175.658C262.995 178.6 268.858 188.786 273.564 198.292C285.175 221.746 287.619 233.703 286.683 262.481C286.017 282.976 285.505 286.062 280.122 301.996C276.911 311.503 273.204 320.933 271.884 322.952C266.906 330.569 271.114 327.578 278.371 318.34C282.526 313.052 295.266 297.895 306.682 284.659L327.437 260.594L330.233 246.2C336.869 212.033 328.011 173.577 305.569 139.121C294.708 122.447 260.981 87.5166 255.741 87.5166C250.814 87.5166 218.164 120.875 208.033 136.26C183.138 174.066 174.455 219.117 184.941 256.065C186.044 259.95 193.219 269.677 205.806 284.348C216.358 296.647 229.079 311.836 234.075 318.102C239.07 324.367 243.413 329.494 243.724 329.494C244.036 329.494 241.943 324.827 239.073 319.124ZM110.178 321.355C119.724 320.336 127.768 319.337 128.053 319.135C128.338 318.933 124.206 313.58 118.871 307.239C113.535 300.899 107.508 292.883 105.476 289.426C98.941 278.309 89.0634 251.618 86.1947 237.325L83.4062 223.432L73.6085 222.963C59.175 222.273 18.3285 230.088 18.3315 233.54C18.3339 235.863 25.4434 252.784 30.2603 261.929C40.6633 281.679 62.5619 306.994 78.569 317.774C87.7299 323.943 86.8638 323.845 110.178 321.355ZM428.906 320.623C442.221 313.776 457.498 299.549 470.842 281.57C478.403 271.381 496 238.339 496 234.329C496 230.813 468.333 224.686 445.787 223.208L430.332 222.196L428.389 231.456C421.394 264.795 408.473 291.987 390.211 311.799C386.579 315.739 384.929 318.543 386.203 318.613C387.393 318.678 394.024 319.654 400.937 320.782C418.381 323.628 423.114 323.601 428.906 320.623ZM375.222 232.211C389.375 225.626 407.026 220.269 420.069 218.6L428.202 217.559L429.319 205.64C430.866 189.124 429.077 158.339 425.695 143.297L422.869 130.727L415.831 131.269C399.397 132.537 367.937 145.458 351.222 157.807C337.957 167.606 337.926 167.674 341.634 179.068C348.53 200.253 350.45 219.041 347.822 239.596L346.559 249.475L354.318 243.9C358.586 240.835 367.992 235.574 375.222 232.211ZM165.191 237.967C162.68 216.486 164.275 200.388 171.126 178.079L174.438 167.295L170.627 164.266C148.281 146.505 126.82 136.891 95.7242 130.709C89.2919 129.43 88.7887 130.623 85.1119 155.867C82.0296 177.03 82.7526 212.456 86.3339 215.746C87.3892 216.716 94.6164 218.73 102.394 220.224C121.036 223.802 137.432 230.281 151.89 239.782C158.371 244.041 164.274 247.585 165.007 247.657C165.74 247.728 165.823 243.368 165.191 237.967Z" fill="#E8ECF0"/>
</svg>
